<mxfile host="app.diagrams.net" modified="2021-09-07T05:43:12.714Z" agent="5.0 (Windows NT 10.0; Win64; x64) AppleWebKit/537.36 (KHTML, like Gecko) Chrome/92.0.4515.159 Safari/537.36" etag="TJPj2FYsFyl0UaB07KTd" version="15.0.6" type="github">
  <diagram id="8ftZLJcZW5bvfImsklx0" name="Page-1">
    <mxGraphModel dx="1038" dy="523" grid="1" gridSize="10" guides="1" tooltips="1" connect="1" arrows="1" fold="1" page="1" pageScale="1" pageWidth="827" pageHeight="1169" math="0" shadow="0">
      <root>
        <mxCell id="0" />
        <mxCell id="1" parent="0" />
        <mxCell id="qfzSOr-zgeNYvHdIqy-h-8" style="edgeStyle=orthogonalEdgeStyle;rounded=0;orthogonalLoop=1;jettySize=auto;html=1;" edge="1" parent="1" source="qfzSOr-zgeNYvHdIqy-h-1">
          <mxGeometry relative="1" as="geometry">
            <mxPoint x="60" y="80" as="targetPoint" />
          </mxGeometry>
        </mxCell>
        <mxCell id="qfzSOr-zgeNYvHdIqy-h-1" value="班级管理" style="rounded=0;whiteSpace=wrap;html=1;" vertex="1" parent="1">
          <mxGeometry width="120" height="50" as="geometry" />
        </mxCell>
        <mxCell id="qfzSOr-zgeNYvHdIqy-h-3" value="学生管理" style="rounded=0;whiteSpace=wrap;html=1;" vertex="1" parent="1">
          <mxGeometry x="120" width="120" height="50" as="geometry" />
        </mxCell>
        <mxCell id="qfzSOr-zgeNYvHdIqy-h-4" value="常用功能" style="rounded=0;whiteSpace=wrap;html=1;" vertex="1" parent="1">
          <mxGeometry x="360" width="120" height="50" as="geometry" />
        </mxCell>
        <mxCell id="qfzSOr-zgeNYvHdIqy-h-5" value="教师管理" style="rounded=0;whiteSpace=wrap;html=1;" vertex="1" parent="1">
          <mxGeometry x="240" width="120" height="50" as="geometry" />
        </mxCell>
        <mxCell id="qfzSOr-zgeNYvHdIqy-h-16" value="" style="group" vertex="1" connectable="0" parent="1">
          <mxGeometry x="10" y="80" width="610" height="40" as="geometry" />
        </mxCell>
        <mxCell id="qfzSOr-zgeNYvHdIqy-h-10" value="" style="rounded=1;whiteSpace=wrap;html=1;" vertex="1" parent="qfzSOr-zgeNYvHdIqy-h-16">
          <mxGeometry width="610" height="40" as="geometry" />
        </mxCell>
        <mxCell id="qfzSOr-zgeNYvHdIqy-h-11" value="批量更换班级" style="rounded=1;whiteSpace=wrap;html=1;" vertex="1" parent="qfzSOr-zgeNYvHdIqy-h-16">
          <mxGeometry x="508.3333333333333" y="5" width="92.42424242424242" height="30" as="geometry" />
        </mxCell>
        <mxCell id="qfzSOr-zgeNYvHdIqy-h-12" value="" style="rounded=1;whiteSpace=wrap;html=1;" vertex="1" parent="qfzSOr-zgeNYvHdIqy-h-16">
          <mxGeometry x="406.66666666666663" y="5" width="88.72727272727272" height="30" as="geometry" />
        </mxCell>
        <mxCell id="qfzSOr-zgeNYvHdIqy-h-13" value="" style="rounded=1;whiteSpace=wrap;html=1;" vertex="1" parent="qfzSOr-zgeNYvHdIqy-h-16">
          <mxGeometry x="105.36363636363636" y="5" width="88.72727272727272" height="30" as="geometry" />
        </mxCell>
        <mxCell id="qfzSOr-zgeNYvHdIqy-h-14" value="" style="rounded=1;whiteSpace=wrap;html=1;" vertex="1" parent="qfzSOr-zgeNYvHdIqy-h-16">
          <mxGeometry x="205.18181818181816" y="5" width="88.72727272727272" height="30" as="geometry" />
        </mxCell>
        <mxCell id="qfzSOr-zgeNYvHdIqy-h-15" value="" style="rounded=1;whiteSpace=wrap;html=1;" vertex="1" parent="qfzSOr-zgeNYvHdIqy-h-16">
          <mxGeometry x="305" y="5" width="88.72727272727272" height="30" as="geometry" />
        </mxCell>
        <mxCell id="qfzSOr-zgeNYvHdIqy-h-17" style="edgeStyle=orthogonalEdgeStyle;rounded=0;orthogonalLoop=1;jettySize=auto;html=1;" edge="1" parent="1" source="qfzSOr-zgeNYvHdIqy-h-11">
          <mxGeometry relative="1" as="geometry">
            <mxPoint x="540" y="160" as="targetPoint" />
          </mxGeometry>
        </mxCell>
        <mxCell id="qfzSOr-zgeNYvHdIqy-h-20" value="" style="shape=image;verticalLabelPosition=bottom;labelBackgroundColor=#ffffff;verticalAlign=top;aspect=fixed;imageAspect=0;image=data:image/png,iVBORw0KGgoAAAANSUhEUgAAAn8AAADdCAYAAADKBRQ3AAAgAElEQVR4Ae29h7cUVfr3y5/yrvu+9657531/M/6GGZ1gHsOMYQxjGnNOBHPOCQNpMOcIBoICKmYUFRGQpIhZgggiGEBBSee567Orn6pd1dV9+sDpwzl9vr1WnUo7PPuzd1V/z7ND97nlllts8ODBNmTIEBs6dGjYc8w1bWKgNqA2oDagNqA2oDagNtBz2wCaLtZ41GUf/jz//PO2evVqW79+vTYxUBtQG1AbUBtQG1AbUBtowTawbNkyGzNmjPVBDa5YscI2bdpkbW1t2sRAbUBtQG1AbUBtQG1AbaAF2wBa7/333088f6tWrQqVbPqIgAiIgAiIgAiIgAi0LIH58+dL/LVs7apgIiACIiACIiACIlAgIPFXAKJTERABERABERABEWhlAhJ/rVy7KpsIiIAIiIAIiIAIFAgE8cdSLxrzVyCjUxEQAREQAREQARFoQQJB/N18880Sfy1YuSqSCIiACIiACIiACBQJSPwViehcBERABERABERABFqYwAcffGB9brrpJnn+WriSVTQREAEREAEREAERcAKp+Fu5cqXW+XMq2ouACIiACIiACIhAixKQ+GvRilWxREAEREAEREAERKCMQBB/N954o8nzV4ZH10RABERABERABESgtQhI/LVWfao0IiACIiACIiACIlCXgMRfXTy6KQIiIAIiIAIiIAKtRUDir7XqU6URAREQAREQAREQgboEJP7q4tFNERABERABERABEWgtAkH8DRo0qKkTPtra2mzTpk3266+/2oYNG2zz5s22fv36cMw9zrnHNc6LH+4Tn7j1to0bN4a04viePmm0t5XlTVpcJ222WmHiPHUsAiIgAiIgAiIgAt2VQJeIP0TX8uXL7eWXX7Z58+bZzz//bO+8847NnDnTfvnllyCquPfGG28EgRYLLI5/+ukn++ijj0Ic4tXaSO/bb79NBRpxV69ebYsWLbLPP/+85vbFF1/YkiVLgsAsVhRprF271ubMmWPvv/9+sL0YRuciIAIiIAIiIAIi0FMIoGf6NNvzh9cOYXbCCSfYnXfeGQTaKaecYmeccUY4xut3wAEH2IknnhgEWCz+EI4ffvhhCPuXv/zF9t57b/vHP/5Rtf3tb3+zHXfc0Z5++ulU/BF38uTJRl5HHXWUHX/88cEG7GDjnO2II46w008/3datW1dVb9iyePFiu+CCC+zAAw+0V199NXgpYxurIumCCIiACIiACIiACNQhgI7wrSyY32uG3mi6+EP4sYbg+PHj7bDDDrPrrrsueNCOOeYYO+2002zFihXB+7f//vsHQUb4uKCc45489dRT7d///rexJuF//vOf3DZ8+HC7+OKL7c9//rONGzcu9R4SFzG45557hvi33HKLDRkyJN0GDx5sXNtvv/1sjz32CB7GYgVgC+nglcT+Y4891j755JNSL2Exrs5FQAREQAREQAREoEiAYWRoo2XLlgUNFOseD0svKc6nH374IaeL/P7W7Jsq/igM3rQXXnghiKa//vWvhsjjt4T32Wef4JGjO5hu1X333dcQhN98841Nnz7dPv744yDiYvH397//PcTp16+fFTfiIv7Gjh2beg+BixhE2J199tl233332f3335/buHbwwQeHMGvWrCkFTDkYj/jEE0/Y7rvvbiNGjFD379a0OsUVAREQAREQgV5MAE0xf/784BijdzOe84DmYEgcWmj06NFBAJaJw63B1yXij65XvHw77bRTEFp47hB7//rXv4JnjgLSlYtIwzN45JFH2tChQ4PAQhlPnTrVrrnmmuAZpKu4KPw4p9uW7l3E3tdffx1AuvjbbbfdDOFIumx0AbP58dFHH239+/cP3csLFy4s9eohQhl3SPc0AvDTTz8tFYpbUxmKKwIiIAIiIAIi0PoEEHPMSUAfjRkzxph74JNKmdg6d+5cGzlypM2YMSPomc4m0lTxh7GMu8N1yVg5um3pav3ss8+CJ/CPf/xj8ARefvnlQZz99re/tUMOOcSuv/76AATh9+yzz9p5550XxB1jAn28XnHPvZNPPjl4+G699dbgSgUk3b6MB2TMHgqa87LtqaeesiuvvDLYhyey+CGtCRMmBOH3m9/8Joxd9IoqhtW5CIiACIiACIiACNQjgABkkiq9oxMnTrSvvvoqCD2cS/Q0vvXWW0E/oaM6+9N08YfBeM1Qr8cdd1zw6OHqxOtGF/A999xjL774YvD84Q2ksHT9UlhE2OzZs0M3Kx4/n6BRa3/SSScFAcfM4e+//z6o6JdeeinkQ154B/HwxZt7ERGOu+yyi5177rnB3VoEjYC99NJLg7eStLCV8YrNqJRi3joXAREQAREQARFoPQLoI0QfzqVJkybZrFmzgicQHfPdd981TWME8YeoQch0dp8y6SGOGKz4zDPPhNmyjPW74YYbgtijm5bBjggrxBTi0NcBJC4b50DA03fOOeeECR9M+qDbltm3dBMzhhBvIRMymMBBHIDimaMLmHGAhCFfZjb7Rhyf7cs9PIaIVOL6Bxs4R5TS5Ut39OOPP25/+tOf7IEHHgh5eFjtRUAEREAEREAERKAjBNAsePvo/mUeAl5AtFEzexdxrPW5+uqrc+vjdcToemERTgg/+q0Rd7///e/D3idZMIMX0cmkEGbcIvAobOxN4xxFzIxdum8POuigsP3hD38wuon/+c9/Bm8cwmz77bcPs36Jw+QNxhLiOn3wwQft9ttvD+IOgecbYw+JR9pM4rj77rtDNzOTULCdD7asWrXKrrjiirDMDOMPOWecIGP/6Kf3sPVY6J4IiIAIiIAIiIAIFAmgIdBCOMlYvYRxgKxv3ExtwZjCPni9GF/X2RmRHsLulVdeCZM09tprr+C5Y8FlPG6+1IuLP64h3NjwthGfY1Qw4pAu2mHDhgXvG2ntsMMOwYsHrJtvvjl0215yySUhDm5UPIQIxl133dV23nnncJ9jJoCwcQ0B+V//9V/hHmIOG957772Qt9v/yCOPBIHIMjH0z2MbYxiJy1hCZuXEgrVYsToXAREQAREQAREQgSIBdAZD3PjxCpxVzE3AYbZgwYLcDOBivK09b/qYP0QR3booWbxld9xxRxjTxwQNPH942WLxR9jXXnstrOPnQmvKlClhnB5j+hi35zOHf/e734WFoRkPyDXW4CN9BCNp8sseuDanTZsWxgJeddVVIW3EHf3qdPHiSWQWMotQExbgzMDBblyx9MHjXWSMIkqZtKksVLmvLXjvvfeGsFzXRwREQAREQAREQAQaIcASLwixUaNGBR1CzyLOJc5xYrkjrJG0OhKm6eIPQYRgoguWMX0u/ujiZZIF3ab0dTMWEPFGNzFr8SG2WHYFrxozfs8888wg8BCMjBVEsNGNTDoIPzaEIeP5EGaIN6CRN3kMHDgweArx3iE4EXaobfKk25d8uEZ44nHOZBFmH/OrIohAfonEBR5hmJjC5A88iPTVE9/vd6QSFFYEREAEREAERKB3EUCn0BP62GOPhXkFaBK0BcPW+GEMPIHNmvTRdPHnnj+E1OGHHx7EH0Lw0EMPDZMm+Mk2hB3ijw0vHV2vLNrMjF1EGF45xu0xwQJhyJhBvHEsGn3bbbeF69wjDH3mLv5oRi4+EZh4CBGMrAUIZLyD/LQb4s49eoTH+/jkk0+G7mJmAOOGJXws7Dimkvi1D+9CZswg9uojAiIgAiIgAiIgArUIoCFwILHMHEu90OPoGoM9HkAml6Jp0BV+r1Z6Hb3eVPGHsYimhx9+2Pr27RvEGh4y1tnDY8Zv8SL88Owxk5d1/5jIwfVrr702DIBkUgZj+7jn9wnDRprs/R57wiIcEWUOiz1CDQH40EMPBTHJAtOM/9tuu+2Cl5H7hGNj/CP5IlaplNjjFwMmLN4+IDL7GHGJV1EfERABERABERABEahFAOcTji1WM2GIG3oi/nC+ZMmS4KziF0CK9+OwW3LcdPGHqGIcHd461vNDWCGQ8P75L3EgoCg8ohCPG/3duDqBg2BjvCDjABvZCMtYPtymxQ/wsAcxx+xffjWEbmLG/+Gh5D4bx9gDePcIFtPyc0+T7uovv/wyxPV72ouACIiACIiACIhAkYBrDdcd7IsfD+P6pHh/a86bKv4wzAuG8V4AL5Df872HicN52Phee8eeXhkYvxenwbX442F8H98rO/ZwxXTKwuqaCIiACIiACIiACGxLAkH8sVByM5Z62ZYFU94iIAIiIAIiIAIiIALVBIL4u/DCC8P4Orxh+oiACIiACIiACIiACLQugSD+mGzBrBN1W7ZuRatkIiACIiACIiACIgCB8AsfV155pbp91R5EQAREQAREQAREoBcQYKZxH4m/XlDTKqIIiIAIiIAIiIAImIVfNOvD79Pyo8Lq9lWbEAEREAEREAEREIHWJqAxf61dvyqdCIiACIiACIiACOQIzJs3z/pcdtllpStM50LqRAREQAREQAREQAREoMcT4McwNOavx1ejCiACIiACIiACIiACjRGYM2eO9bnooovk+WuMl0KJgAiIgAiIgAiIQI8mEMb8nXnmmeH3djXho0fXpYwXgZ5FYMV4GzhiXrXNc4Zb37Lr1SF1RQREQAREYAsIBPF37bXXNmmdv1U2fkDf6EU+z4b37Wt9S7fhVvU1wJfDgPG2Ki1YJb00fj7OvBF9bficSmC+QNJwcZ5xnGJ6cbj88cAJmRWpOQ0fzLPhNb7MVk0YaLXThpfbO8+GRyxyZS3aUbPsXqaBNn5FHAkOxWtx3nFYM6NeCmwT7kmc4SM8H997GQrp+GkDX/aUN88pbzP3+zqrqnbjGVX2MZ+IqcXXC+XLtyUvT+Ptp++W5BPHsXx5aTdFgVS3TTiCBljDIc864lajHXvy6T6wdE7p1fxBKv7a50j7WjVheNRu24lTsLO6/VTacY5xbF7n8K7/fJNfPp/Egi589uIit3dMndbkFUXOtTHKUni3tPd8hqTKuER5pGHK2lgjcT0twhbfLX6vnX2dclDv6XdRmkwjdpWFKbuWJmrhXVD3fVV5DzdSd1my1Ue58ibc8mWs027T1OqXJQmWpF18v5U/K2bV7+3hNp73Yw0meZtTwxo+qH6m4+/mRhg0nFVTA4YxfzfccEOTxF9ie2icoeHFkOJyRcBoYDUqLVRm2oBpIPkHP/fll3sBeV7VcfxOs/fVDcZzTBp6eYOMuFieXa6snpTvS8vuN83mjSi8jEu+gMpeKEUb4zIl9sT2FliX1mul/tqxNzzc4cs8TjPh5g94mW3JyyMfLoQvCIOUTJUdxC2yisuYxowOyuJEt0sP20vTI+XTDnVUKYu3h1Urqv9J4V4q5qrK6GlH+1T85fPL6oGw0T3SrPfM5u5Fz2z4Mhlow4v/WNW0MeYU5R+ZHg6r4sfxssDOLLtSPMrn0Rhv4mT/hMbPSDH15DyfB9dCPjlmWXqeRpxuu8+eR9rKfa4dtZdWrg7gX3mOXECsWBX9U19JLLwjvH1Uc6nOkjBl75BC3NQWrvs/pO3vwzND3KguuAaH+Fp6nHuvlJSZAnj5K4WpaoPh/nAb3oCd/s6L20KSbEl7L+RbzZIr1XzS94ZHyKWThE/s8DxX2aqcY8GdBY3Xay2+AweUCbrs/RyzhEnMx4/jMMZ3alS3fb2Nellr7DPexfjFdpHZViOpbXp51qxZ1mfQoEFNFX9ZCevB8saRhS4+KEBPH7So0oZPLgrG4Tav8NBm8UryibJs3iEPynCbx8MT2Z7ZFTWcEfOqXjDD53RQ/NXNI2qUBU7hIVkxPv+FHGyu5pY9BAhKvqD8BQDFSnmLQNMXcXSj7JrfJu/4pZqek35UDg+f7mvcr5dX1b2yNOIypplFB2Vxotulh/m6rQ5S77mJ2o3XeZGXe0RJuKqM1bkRJnvpR+WN4sZ131CaIZssLeIPn4Bnf2Dw7s+r8Wwnz0fW9sI7IJSvDufIzmCbc6nsk7KVMfX2VHavhLOnG/Mm7/Qf1ETIZSwLrAnrafStCLxmPnuF7Ns7rfUlHNscH1POUD9RmeL71cfOO7GE/DJWdeo3NZww+baRxI/jZm0u9w9Lmkb5Qa59hyCkk7c39/2Uvpei9NJ2GNsQt4m8/cSszjdcrfuuq46Tzy9YhH1Ru4ysjA6xx9t5oayFtlpdlx4v2bvYIvEO1WvIp5J3OKZ+3a6krkO7LCkL1z3feu3Qw3jBQ3qhzRbK7AEK+1LeqT0l7Avxu8tp6PZtmvijweUemFpfcnlgWWXEDYqKIZxXUHyc4Iwrv/wLqfph25YVgb3Zy67MkphLnl1c1qrGmL50ytJsz/OXzyf57yh7wcYpxvkm9sT21mAd2VbvAa3ptUsfUtL3tpBYFdvjdtbNw7+k/Ms7vGziNlfruJxHxYoqu9yWmvuyL45c4Jhr7kb1ScSXm9RLey9q7od2WFL+8KL0NH3fjr0hT2dabWG4EtoL4o9wc4anL+1w0/Mpjevtqrr+0+Bx/PiYABVhW91W4vS2lDdpNMY7+wIq5Jt+iWBsbTti+xt+9lJAHT8gj/rvqiTN2K76ucTldu9QI+xiMRCFD9w8Td+Xvesiq6q+n6J7uUPSS4RF+++T/DvJk6nuban2AubEKe3W308l+7gu2repwinXttyyeJ+Uk3yz9lm5X3yO4miF46Q9Vi4GxlE9lZQlKae/U2nzjYSvhIneM3G+MPEyxMdxmMxsz7O87tJwVWUZaMNHlDukShmmCXWPgyD+vNt38+bNTbAqaVBJY3XIZZXrlZ+9oMPLL1Ru9jDHrun4AcDwULHBmzDeVtV8eDyferaU2RePXax8qbb7MGFV9kDlxjBUPUzY47Z5NcTXYnuHG+PqaNyUOU23ZplrlCcV0hnf+i8SfzhiW0gbe7gX20uaxfKUe57IM67LYEP0UDuNdF8RH9W2YkMN3h65irvfKLMt45KFisuYXc2OyuJkd8vGS9Z7ycdepOpuiny9xgzJMeFTqIN65a+YWayP1PoacUMb7MALe/icCqM57tUttqd8uQKfqvZQh3NsZ3xMQRB/I4aXeEHK0qtvV5F34FB4J9RkmULN8q1uzzGHTnj20jw7eADDuvVbaGNp24vtj4+L4RPOeZ4Zl9rW1noWa8St+vKObSo5rtQl9Zq3rWIR6Xl9V95J4U7Ky+us3KNX1TZCvEqcXLstlCfnmS9Lu4RLbGtNoOQDh2L9RBHSspXwSr9PPPyW1GuJ7Z5ccZ9jVPn+r4z5h23j4q/yPVplfzFDzhNG3h6q6rASJc6/LJVtfY3Jvan4W758ua1fv942bNjQxG22De0/zpZX5THbhvYdarMr15c/PaDOy2aAjVua2BjCeXpLx9kAXlB+XpVHo+VabuP6Z3nU4jF7WAfzmjnU+g6bnbDF1oKdpDd0ZtHGhMvQcC/PLuTftyzOBoPLgKeXp/VYTLt4vmEDZeZhTso9e1hW/lrHcInzScIl9o4r1l9c1phDVN+xvXG6G7xe4y+fOL1a9RznU5ZGJb043w1xnJBuWVvwturMyl6CNa7VsLu6PortoP550hay5ydps25nIW5VGQv3NxCvrw3oPyA8S7OLdRnXQ/TMhjxL2nWxneRsI7w/E7XqseT67GGUtR3+nm6xvDOHVp6NIp+yui6ySc5LeTdc9mKaXo4uePZKWCb1UbQpOq88O7nnJJdOkWMUNxdug/mzXEwr97yncdqvD+LxzhrQn/dg0m5ridRinuXPXFlZ8umSTlL/Jc+4t7lQhoL9Ve2jcD88d5Sl8u7NtVvCRs932oYT1tX8SspRlX9ZPZFP3+x7Kq2LsrDxtQqjXPnz3w9ZOyuWO04nO07qtoRx5f2T+66stNG07vuPs3rvrVxcLyO8K99/ma2ZPek1fx76J9+x9ewszcfz28Z7tF5Y5w/P39KlS23t2rW2bt26Tt9mDOlrg99tNN2lNrpffxu9uNHw62zdu4Otb7/RNtrz4Tz3JVXdiHL2EH7IjEq54/xn2OC+g21GZzCJ8oBH0b7+Y5faunVxftiRhEtsnWGD+422pRVb6jFdOrZ/VfrF/NLyp6wy5jOG+HHMYp1l15O6IZ/E7kq4d0db/9RGrpWwizh4WyuWJUt3na1bPNr6p3VDvs4hb9u6dZxH7SzOpyqNov2VtpayqK6fPL+ScqVtpGhXJe30fvE8q/MiX+dTe5+Umbbv7aJ22KiMOZ55e2A/eAjPw+ik/dUMm9nteS59d4YthXXh2UvaSD6fECeql7ptNraBOKG8ztn36yxtN3Hdl9Rpak+wtbyte5ny+47zTm0qq//UNrchfsaycmFDsW1k6VbCNfLsldlQ71rgM9hGt/s+qfc8RO2ub/R81ss33MuXP18PpMl7YLAN5rtiLO/7jGExbMbK2+AMm/EuTIvPef1yVKWTtkVPN95X2597z1H38XO7eLQNHjsj++5L20bRxuQ8bcPrknaffz+Vx8nlV8ofm/tG34VxeWochzbSt/I9UCNMLq9qLsX64ryKdZRGjmON68T377j4uFbcoCHqtCG3MdjVr39gRFr9+/l3YL7scZ4et7vtu2DCR+ayxhVar5EGN21dt3JJo3a3u3f7+lIvkV+1lms2CYJ9sZs7szfcL7iWo2Q7dliaTuxCTlzk7qpOxojELvD8WDy6Ijxs0ZBieYthi+e5sSaBo3dX5FkUx60U88kNgG54wkc+D8qSS7esqybUeRaP8LSrHI+Yd9wlE8HK5VPMN4TL8siixXWSXc2OyuJkd4tHwfZKl2aRbxq2o89E1G1DXdd75vxewq7SxuJupbp5V56bmnWUlCCzwdtVpWRRvRTrIi17FIZrhMvVczQurjSNuB2QQFw2zkk/bU+V8tQtcxlPf39Q92X3i9diDvn2krWBWtcTMlVlTcsRKBXeaUmcjv0l/6RcVXnlEoqfh0bLn/Hw7rOGh0NU3vdJO8hs9O44b8/FveeTtcXMhrQ9wdD/cfFhBhHX7J2cxc3n4+3A6yCuZx/XSBiYFe4Fpvk6t3RGdOF6oQ1Xv8/jOqlUVlSOXPXlTir152WP7pVxy5e9wMTTiJk627J99D1OttRvvfTTOivYWHY9aStRwLLD8MyX1UkcOOHKMjLenurZWWZLnNq2Pk67fVeuXGlNWeQ5VH7hJZI2xOzhrVVB6dpe3uB9X0Iu9xBE4aoqKGpo3POKTJIsPGh1RGWJCbUvFb6E3KakgdCoCuIlpBQ/xHXEX8qzUoJCmXJcSsvjZa48/GUPZ3TNG3WRXf48q9sclPiLlXrgPKoPwubSoWz+InEmIXxma77+KrnFvEMbLLycKuWJ45Kvly1JxblU0vT8I3EV36kdpzpUuBLsyr4wsi9+Dx/Xv1/L9jlO2eX6RzGXYkifeBE9O8Ug2Xl92zJRlcWoOorqlrLUfNmn9Z9/BkJ6pFFpP6U8iuWtWbYa7TUyujT96H7ZYftxvI1l7bkmh+gdUUw3f95+WcpsrXWNtOvZVHeMWEi0nbZSmrFzKbu5ysaPYP3XxsqZZ1OdXvH9mA+R1Et+JYNKiKjt5eNwltk/b0T2jPPPByzj904WN4vDtSC4Qtuuz6+h90ZdW92CpKzF97Hfrd7n7a2+X3alsTjt1VlZylk9VsoRfWfl2m/6PslSSdp4O+JvxXgbH9YbLWqGJJ3qesjS745HQfxddtlltmLFiuaIv+jlm1Zo2hCppEwYhi9e7tWqtNLrWYVllZ+fCJHmW6yB1I74RlnjrH74sgczjlvnuMKBF0FYBDn6wvKGWf1CiPP1L76EmU/4CDlGjINdpZyqxU+WX1mZKxMgmFFb4k0l3+SBIV3qoJhGYme6cHdUr6nAqlxLzyv4KENqWxTPOSUvp2J+edEYbPOHnDT8OKqifLuoTi9+gWfR4jrJrmZHZelkd7Mj0skL/uqXR/288vZnKdc9itpKzXA1BVIcI7OtI22OOkzrO6qXmmWJwlR57SqDrz29XBpeTt+76TXLlpXHgxb3ufSLN2uctx+nRnvB7s569lLbyCvin16vf1C/DO1zqzdruXbONbjkIhAmEla5e9lJan/Zu6Teu7Lyjo4FG2ml76GyuOl7JmFN2PJ3WZnd1WX2/NI0smJVjsr4l1yj7F6eqjT8gtucfaf6nfJ9tb3l4eKrjcXxctdj7c+9p569h/JsSasY1uP4PonbWLlJL9QHz2hZG0ivNZae29DV+9mzZ1ufq6++umm/7Rt/kafQ0oZIQyiIv5RASQNO72Xx0kuxR6uSfrJ2WLLad/XDU6sR1rhe+NIIjaXdhymyzhuKvxz8PE2DfKOZuyFqxCB6cdGQyd8bdMo1yi4+jMPG17PjYpkrtlRsC2V1u4lUsSXHlPLEYdr9r5yyRS/G1Jgkby9byCuXbiyC8w+XlzPYOyBZKDVnY5pHyUHaJuN7RS7ci+okDpoel8VJbyYHFX5pGSu33f40dKlN6d28hzS7XP+oqp5KgqdtPamj2i+4/Es2pORlq8y6D89grv6i/AhbuUcbrplPJUzOgxLqId9+cs+Bl8Gfs/SFnI+TWhPsLilPGiD/z0V0ue5hzqbSkMX2krR/97506rPXQBnLTKxfhvaeB1JsJEwx5yKX4n3OCZN9f9RsP6XvmcyzNj68S7Ex/z5Jc6y0adLPvU+4nr6/09DJQSWOP+OhHuP0Pc3cs1Eos4dhLcxK+/X00txKn+cS3vVsTROrtL1iOdP7xYOCvcXbpeeNxanf5pJnMWXhz3iNuiCtNGyZTc45rp+ycJVrZbYlz+n4ji/zVSefZt+aO3duMxd5ThpTsrRDteep7GHNKokGXC9O9KJOK88XUS67F6dV/ZBToak9NRrR1lRG3GCSF0FkY5Qw93jBpPb4y4EGHtvlDT4wSsqTxqnLrcBhcuW/F9JOOVbz8f9+y7t44pdNeb1l9ZqJx+xaIU5cTmwKDLIXk4vMhGNcHph6lxBQozh1mDjvzB6vkOxFlWPrdeLBvIvG84jtj8KEw2jb19wAACAASURBVFBv5XWfMc7KlPuyCQnEZSqpJ88vrcssrbR9u52FfVp+F06eVune6zy2p2/WRsnfOeTaavQFmtZtHWEVhUnNCGUrKXshn1AersX1FZUtV6c1v/Di8pXk6UYV8m6PdfCWd/WzV2Thtrezh1OxHeaevZhvnFbMpFaY4rNTaJOlHL1dReIvzrZ4nNof2xN5oClL0vbjuua58R8L8Oe18J4qtdXDVqwIbTVq8wXjkjbo7Yr86Wmp9H6l5fRIsX1JnOreAsL6s1kRuBU7i3XoqWb76vSze9FRpUyhbqpszMLl2kgpq8K7KUqr+GyWtYP0fZVlGY7aj+u8Cd5gmaM8vD3F+WS2dDy9KOkuPQzdvk1b5LlLi6LMREAEehSBSNj5CzWxP36B1v7i7FFllbEi0O0J5J87BFcmarq98VtgYLG8sSjcguR6WBSJvx5WYTJXBERABERABERABLaGgMTf1tBTXBEQAREQAREQARHoYQQk/npYhclcERABERABERABEdgaAhJ/W0NPcUVABERABERABESghxHoEvGXH8xdIRQN9u5UZrkZbcx6KgziJN9oVlF53tlsqfL7ZTNWo3KVpF8182kE08ILs53SGVGFGWMlRpQyjcOFGVmFdGI24b4G08fIdCwCIiACIiACvYFA64k/ai0WOWHae0UAuvBLfzYnqmLipKKtPfHH/TLhNtAGlgm60nSZaeTiLD6O8samYj6VtOqLP9KrlDla2iK3lEhqU8RAhyIgAiIgAiIgAi1PoMvFH6KlStAgcDpBjNRMuyigwnnsEUymfGfT2iMBVtIEghevYm84Zg2riictWVMsEYfV6yrF6SZ5lrIo/HxYmdAru+amFtd+Ss9zothDay8CIiACIiACItCbCDRX/LkgSsVXJLi4ly786b/asHXo6wmifMqRZ4wbZR621ObIw+cCtdHwlTTKRSU2tOP5qxgdl6uq+ziyM4jNWrbBukr8xWI0T0hnIiACIiACIiACrUmgueKvwiwWLynGJog/T5v8yj1qCDkXXJXQFYGaCTSutyOKqkSU51y9R6xlacfpbpn48xzy6SYruVd7Gj009xHe5B+JWY5TAZ6F1ZEIiIAIiIAIiEDrEth24i8noDrH81e3mioiryiQiiIqSSMWabVSrddtWy0yi4J04IR5DU/4KBPPRbvjc46L4jcToLXKo+siIAIiIAIiIAK9gUDXir9aXZKpNyrqFu5M+pV8GxdAjYq/WvbWih9f3xrPH3HzeefFX/4e4jGUPSe4K93d3pXdmbyVlgiIgAiIgAiIQLcl0LXiL8WQiJeBI8bbqvRaclD0kBU9WLXOB074rI4nrdoTRjqpF7BdUVqJn+si7ZjnLyldLP7igsdCML6eMUltDZeq08mLv+ry5sUf8Ttnkk21tboiAiIgAiIgAiLQnQl0mfhz0ZaKEDxO8TIkTaNULZTaz6qRONXetw6lW+mGdi7FfeylzAniEfMsnOeEaDLmz+Oks3srBuU8f8HLWhj32L7hCiECIiACIiACItAiBJor/lzgxEIlXMu6JWOPVXOYNiLkijk3Eqc9zx/et6LIIt1aXsRi2HgWcsYrmZkcnQfTE1sy8dee58/L20g5Paz2IiACIiACIiACrUCgueKvSKgg/JLbiXDJd2sWI27N+ZYInEbitOf5434m6HwSRnk582FrlrYipl3kZeGwNxOEdT1/RSGuMX8ZRh2JgAiIgAiIQC8g0HXir1T4ZYSDOOpMIRKP44sFT5almSXCs9jlWvc8TauRuJn4y2XbSL5FFqE8mcBLF5Uu8SSm4i9lUIlXEY9x+crFaN5anYmACIiACIiACLQOgaaLv40bN9rKlSvtyy+/tC+++EJbL2OwcOFCW7NmjbW1tbXOU6OSiIAIiIAIiEAPJtB08ffTTz/Z8uXLbcOGDUEAIAK09Q4Gmzdvtl9//dUQgBJ/PfgtIdNFQAREQARaikCXiL8VK1boy7+lmk1jhXGRj9dX4q8xZgolAiIgAiIgAs0m0GXir9kFUfrdkwCiT+Kve9aNrBIBERABEeidBCT+eme9d1mpJf66DLUyEgEREAEREIGGCEj8NYRJgbaUgMTflpJTPBEQAREQARFoDgGJv+ZwVaoVAhJ/agoiIAIiIAIi0L0ISPx1r/poOWsk/lquSlUgERABERCBHk5A4i+qQITK+vXrwxZdTg9ZumTTpk1dNnMVe9g6+iEOS+tga3sfysRajPGH+J1VTtLShI+Yro5FQAREQAREYNsS6HHiDzGBYGHP1pGPx5k2bZpRcIQe19auXWujR4+2zz//3N5880174403UvHjeZDnzJkz7eWXXzbWLly1alUI9/rrr5tvxJsxY4Z9++23IV3ifPbZZzZlypQ0jIf1/dSpU8MiyMVyEJe0JkyYENZJ5LyRD/Z+8skn9vjjj4d9vXjc++abb2zixIn24Ycf2urVq8MGhxdffDHc8/I3kndZGOJL/JWR0TUREAEREAER2DYEepz4Q7B88MEHhmhat25dhwQgQoT4zzzzjA0cODCIMjxcc+bMsf3228/GjRtn1113nV199dU2b968IAYRenzwjj366KN2/fXXB3GHQDrnnHPs+OOPt1tuucVuvvlmu/TSS+28884L6ZEXcR588EE7//zz7cYbb7TBgwfbkCFD0u2mm26y0047LQjEosjCLsTmRRddZA899JB9//33dVsI8b182Ea8u+++O8Tze3EeHCN+Eab9+/cP+zFjxtgLL7xgkydPDgwWLFgQeNXNuJ2b5CPx1w4k3RYBERABERCBLiTQo8QfQmLJkiVB2Bx22GH29ttvh+7NjvAiDbxdDzzwgJ166qn23Xff2RVXXGF77bVXEHOHHnqosXHtnnvuSQXg3Llz7aqrrrIzzjjDJk2aZEuXLrWXXnrJdt111yAmEVEIvwsuuMB8UWvEH8KQtBBVhMGz6Bvx//nPfwYvJHbFH84Rt6+88kqw85133glishiOPD766KNg61133WV33nmn3XrrrXbCCSfYIYccEkQn19gQg/fee28oMyIYD+V//vMfu/baa2327NlBvFLmp59+OgjWt956K3gdCddIF3Jsvx9jr8Sf09BeBERABERABLY9gR4j/hARbNOnT7cTTzzR9tlnn+CJQyB15EMaCBlEH+KR7s6///3voZsTcXbNNdfYlVdeGbx3n376qf3444/29ddfB9GE4Nx3332DwON3ivEKDhs2zI488ki75JJLggeNrloEGfm4+EPg4SE85ZRTchsCbf/99w+eTGwiTvzhnK7Yc889NwhPbC6GwXuHJ3TEiBFBvB5++OHBa4cn8oYbbgjeRuLDCyF62223hS5r4iHujjvuuCBMX3vttSBE995771DGnXbayQ466CA7+uijQ7mwY0s+2CvxtyXkFEcEREAEREAEmkOgx4g/io+QQIwhdPCyMZ6uIx4p4jO+D1FHty5j43744YcgkJ577rnQ7YvnDrGEV+7VV181RN4vv/xiy5YtC/nSnUo38cqVK8OYvMsvv9y222674AE86qijgteMOPymLZMuEFyDBg2yd999N4i0+fPnm2+INo4Zgzh06NCqiSbYSz6I3R133NHwPiIo4w9hEMB45xBwdDHTfY33kY3fVaarGnG6aNGikB62IWgRnwg8yglTyoJ4pXv7rLPOMphgH7yK+cY21DvGPom/eoR0TwREQAREQAS6lkCPEn+gQYTcf//9Qaj4xIpGkSFEEDIIITxkZ599tv3888925plnBo/cnnvuaQceeGDwkh1xxBHB4/X888+HPBFyjzzySOgipZsVzxpiD9HGpAwmjNC1OmDAgNDNSxhsxdN27LHHBo+ij/lj7xvCEHGHqIyFLLbSNcskEgQdYcgLe8s+hMczyJhCunLXrFkT8qeL+5hjjgkTTvD28UHM0v27xx57hDKMGjUqeBYRgQhDJqPQxY1X1D2SpL8lH+JJ/G0JOcURAREQAREQgeYQ6HXiDzGDMGLWbr9+/YLYwZuIF5EuUMbzDR8+3B5++OEQDjFEHEQXQo5u35133jl0meJJW7hwoT311FN2+umnh/GIX331VRBhvtTK4sWLgyfuvvvuMzaEK3vEFxNEEGrMzEUgIfb8wzFeSiagMFYPrx7ClPRqCTHsRMAxgQPPJfEZ/8fEFDyAnj4iEK8eohUGdP9SfrygeBFJAy8gjcM9mC4C3b5G9xJ/jZJSOBEQAREQARHoGgLdWvwhHBAssfDgmBm0TKLA88f9snD18JEGky4QSQghBM6sWbPCBAm8XXfccUcQZNxjo5v3pJNOCt27Bx98cOgapTt2++23D9d++9vfGtt///d/h1nDzCZmjBxpMtED7yFii43jZ599Niyvsttuu4XuVq4hwFg+hrKw4TVE8DEphS5jRBmeSsbxISxdyMXl5BrhmMzCxBSEJV4/4pMe6fJhD4OPP/44eCqxi5nHjEvES8kYxV122SVMfEEQ0z2MKPb4cZ7tHRNHnr/2KOm+CIiACIiACHQdgW4r/hANiBkmeOAlc48X1/BYMbMVTxXnbHSPspwKx+19YvGHWGL8G921TPbgGPFHFy8ijrzpKma8nc+MZSwdkz3oZsWjNnbs2CDSEKNc4x5eQdJBhNFli6hCyHGOl5DjHXbYIXQ/cw0PH2MQXZghmBjXSFcyy7wg3uhKpqsW4YoALH48LuMTGbvIWES8lQhV7sUfOJEfS94w5hCBC0OWeSHOySefHMb+0QXMRBjnH6fRyDH5Svw1QkphREAEREAERKBrCHRr8YdIw+OEkGGCBmPVEGt0Z7L3c44Zt4bAIk69D2KEeAhIRBkCCA8gXi9ECmPkEFyXXXZZ8C5yTDexj/nzdf4Qhsz0ZewfXafMpmUcH+PyWC+PdBBseA7x9CFMEZDY7nbjRWTGMZ5HwmI7+dB1jCcOTx+eSGxGrBEGrx5rEjIRwz2Afp+8EHos2kx58ODBBM8ewjQOTxwXf0w8IW/yIEw85o88uU74LfkQT+JvS8gpjgiIgAiIgAg0h0CPEH90uSJ66EIt2xCILMxMFyVipdYHIcJ9Xy7mgAMOCMu6IN64hscM4UUeeN2YGII3DLHGuECEIGviIaQQSCNHjgxjAxGKjMdjlizX6K7FK0l+CCfGBZIWXjaO/Zc0EH943Vx4IQLpimUSCJNQuBeXh/QQuozHYwkWunMZi4igxDOHkESM4lVkHCHeR2yi6xfRSnjKiMAjLcQfs3oRkpyzYQtlhqcWea7VknRdBERABERABHougW4t/hBOLD7MTFi6SukerbUhluiuJE6tD+KGLtmLL744dMm+9957obsX8cYkD8SdL5R8++23h25ePIQIQiZB4IljAgXCDpGEMEMYIvZIE1HFtaKnjLCkgTCje3X8+PHBO8gyK3j2PDzdu/yaB0vN8AsmePKwOf6QFuKRsX94LPGqkSZd1jDiOufEJSw2UU7u05WLR5GuatJlkgcziRF5ng+2kDfhEId+PbahI8fEl+evI8QUVgREQAREQASaS6Dbij8vNuKhI5vHK9uTDh48fsGC7lEXUoxpQ5CxXMuTTz5pTzzxRNg4xvvGRAy8gXgffQkXt4k0WNeP2cMu4mrljWcPscjaf3jvGE+IJ4+0+CDYSIufZyOtWh/CE49JIghRBDKzk/HgkYenR3y3E1FK1zniFY8g1xm7SBc14xw9DnvEGr8swn2/XsuW9q57elubTnv56L4IiIAIiIAIiEBjBLq9+GusGI2FQoCUbQgtRJxvCCU/5p5vXCuKsmJ69SzxsKSDR4491/zj9+Nrfq+4J4zbFe9rxfXwnqefEzeO49fZx9eL+Td6Thry/DVKS+FEQAREQAREoPkEepX4az5O5VAkIPFXJKJzERABERABEdi2BCT+ti3/ls9d4q/lq1gFFAEREAER6GEEJP56WIX1NHMl/npajcleERABERCBVicg8dfqNbyNyyfxt40rQNmLgAiIgAiIQIFAl4k/RIA+vYsAdS7x17vqXKUVAREQARHo/gS6RPyxrhwzaF0MaF8+67gVubB8DQtbUzZ9REAEREAEREAEtj2Bpos/vvz5qTPWlkMEaOtdDKh31kmU+Nv2D7ssEAEREAEREAEINF38sY4cXj/WtdPWOxlQ//qIgAiIgAiIgAh0DwJNF394fBCALC6srXcyoP71EQEREAEREAER6B4Emi7+ukcxZYUIiIAIiIAIiIAIiAAEJP7UDkRABERABERABESgFxGQ+OtFla2iioAIiIAIiIAIiIDEn9qACIiACIiACIiACPQiAhJ/vaiyVVQREAEREAEREAERkPhTGxABERABERABERCBXkRA4q8XVbaKKgIiIAIiIAIiIAISf2oDIiACIiACIiACItCLCEj89aLKVlFFQAREQAREQAREQOJPbUAEREAEREAEREAEehEBib9eVNkqqgiIgAiIgAiIgAh0ifjj9321bT0DNVcREAEREAEREAER2FoCTRd/GzdutFWrVtmiRYts4cKF2raAAex+/PFH27x589bWt+KLgAiIgAiIgAj0cgJNF38///yzLV261FavXm0//fSTti1g8MMPP9iSJUtsw4YNvby5qvgiIAIiIAIiIAJbS6Dp4m/NmjX29ddf29q1a7VtIQME9OLFi239+vVbW9+KLwIiIAIiIAIi0MsJSPxtoSDrSjEr8dfLn1IVXwREQAREQAQ6kYDEn8RfJzYnJSUCIiACIiACItDdCUj8Sfx19zYq+0RABERABERABDqRgMSfxF8nNiclJQIiIAIiIAIi0N0JSPxJ/HX3Nir7REAEREAEREAEOpFAjxR/LBnDJIh6ky64X9w8fHzdr/k+vld27OGK+zhs8d7WnpO2Zvt2YqtXUiIgAiIgAiLQiwnMnTvX+gwaNMhWrlwZfoWjs1l09lIvpPfll1/aihUragpAwnzzzTdhiRmWmWHjnIWSWXB62bJl6T2OXZwRz++xNmG8eTrff/99ab6kzSLW5INY8zQ7Yy/x19mtUumJgAiIgAiIQO8lMGfOnO4t/mKPGscsFj1r1ixbsGBBEHPF+5wj8D744AObN29eCMcxLk6E2aeffmoU2u/PmDEjFWvEe++998K9Dz/80IrbzJkzw2LLeB6Log7x99FHH4U8v/3226r7xfAdOadM8vz13odUJRcBERABERCBziTQ7bt9EVKIqliITZ061d5+++2cSEMMfvbZZ0HIEQeBxzmCD48c53jyKDDCj+MvvvjC3njjjVT84U1855137PPPP7evvvoqt/ELG++++26IUyb+EGjki+DEVkRqRwRevbASf53Z5JWWCIiACIiACPRuAt1e/NEdjYjDY8f2ySef2Mcffxw2P+cax4g8F2F46fDizZ8/Pwg/PHwIPoQf4fHULV++vEr8TZkyxaZPnx7iEj/e3nzzzSD+EHbkUxRsiEJsID55lYUpxmnkXOKvdz+kKr0IiIAIiIAIdCaBbi/+EFQItUWLFgXRhneNc9/oDkXo8fu3LsoIg2ijcHjx8MRxHos/wpaJPzx/jCn0MX7xnvGApE265FcUbowZxJv42muvhTw5L4bZknOJv85s8kpLBERABERABHo3gW4v/hBLiB88arNnzw6Cza9xne7eeNwe1xBodPMiGBFpCDi6Y9sTf8SjO5l84m7m+Jh0CYP4jIUc+TIZhLB0D5NGPJkkDtvRY9LWmL/e/aCq9CIgAiIgAiLQWQR6jPhDwNGdiqBDDPk2bdq0MCaQcxeFiDgEGOP53nrrLaO7Fo8eaXi3b9HzR3yuIbIYY1jcEI/AQmwiIovj/jjnOh5GhCrh6Z4uhuuo8PMySfx1VpNXOiIgAiIgAiLQuwn0CPGHAMKrxixfRJl37zIeEIEXL6+CiHPPH2MFmcTBRljilYk/BBozfRGWCDe6fYsbwpP86UYmHOFjIYd9wGQjH+ITnq5lF6Zx+I4cE1/ir3c/qCq9CIiACIiACHQWgR4j/hBoPnnju+++Cx41Jm7g0eOeCywXf3jemLFL9yyCETEWiz+u+5g/xuYh6PAW4kn0jXO/9vrrrxuTQbjHNWb/khcb8UkfW3z9QcQgiyjSDVw2PlDir7OasNIRAREQAREQARHoCIEeI/4QWQgsxtIhsBByCDG6Vl2E+R7PH+IPgYbIQyTSHcsYPArMOcfs6RImHmKMPR49RCYeQPLgGuISjyEziknPwxMH4Ud3L+MAfakZT4vreAzxFpJWRwRfHJb85PnrSLNWWBEQAREQAREQgVoEurX4Q3ThQUPs0bWLdw5PGqIOIYg3DpHGfTZEH142jhF7hEXIIRLpHkbs4Y1jj4jkOoIuFnOINMQaoo20EXdsgCJsLOK4ji2sO8hYQOyNRRvnpIWnEHsRjvH9Ro8l/mo1X10XAREQAREQARHoKIFuLf4Qcnj2EGl0qdbbCMOsX8QYEzsQZIguxB8eOIQcoo9xeC7iYtEXCzEEHmKN8B6X5WRiDx5xPR9sRAjGafgx110A0g1dK08PX7aX+Otos1Z4ERABERABERCBWgS6tfhD9CCe8Jg1unl4PIXeRevpcA/vIYKu6KUrii7uEx7RiJcQUHgUXbyxR5wi6BpJC6HIWEWPX8yv3jlx1O1bqwnrugiIgAiIgAiIQEcIdGvxV08Q9aZ7En8dadIKKwIiIAIiIAIiUI+AxN/ataXdtd1JXEr81WvCuicCIiACIiACItARAhJ/En8daS8KKwIiIAIiIAIi0MMJSPxJ/PXwJizzRUAEREAEREAEOkJA4k/iryPtRWFFQAREQAREQAR6OAGJP4m/Ht6EZb4IiIAIiIAIiEBHCDRd/LEMCkursGxKd5pE0ZNsYd1BlnrZsGFDR+pWYUVABERABERABESgikDTxd/69evD+nisr6et4wxYZxBu/Ozcpk2bqipQF0RABERABERABESgIwSaLv7a2tqCaMFrpW3LGWzevLkj9aqwIiACIiACIiACIlBKoOnirzRXXRQBERABERABERABEdgmBCT+tgl2ZSoCIiACIiACIiAC24aAxN+24a5cRUAEREAEREAERGCbEJD42ybYlakIiIAIiIAIiIAIbBsCEn/bhrtyFQEREAEREAEREIFtQkDib5tgV6YiIAIiIAIiIAIisG0ISPxtG+7KVQREQAREQAREQAS2CYG5c+dan0GDBtnKlSuNNfn0EQEREAEREAEREAERaF0Cs2fPlvhr3epVyURABERABERABEQgT0DdvnkeOhMBERABERABERCBliYg8dfS1avCiYAIiIAIiIAIiECegMRfnofOujEBjUjtxpUj00RABERABHoMgS4Tf0wmaWQrI7dp0yZj8/hlYfwaYTZu3JiG37x5s61fv942bNhgHP/666/hfpwWx9xft25dmoffb2RPusWtGA/7/Bphf/jhB/vll19CPOz98ccf7aeffkrDeHmasd/cZvbDL2Y/rcem/LZugxkbYeIPp1xrbyOcR204DjZUMmP/8wazNeuTvDjHxu9+MVv2U+VaITz33a60PGb23bqknH6PfbjvebWZrd9ktmFzcj0O58eEjz9c/7UQB3tJh3s//pocx/lwnTCrf82z9jx8H8eJ89SxCIiACIiACHQmgS4Rf4id+fPn26OPPmoPPvhg6fbQQw/ZihUrgviJC0jcN99802688UZjdgoisNYHccWsZfJ54YUXgqD77rvv7J577rFJkyYFcXf99dfbW2+9FY5dUCIOX3nlFRs8eHBIH1FGOp9//rnNnDnTxowZYzfccINdffXVtnjxYvv+++/t7bffttdffz23TZ48OXf+xhtvGNuXX34ZBCj5kRfpX3jhheEeYnT58uX2wAMP2K233moPP/ywffDBB0EU1irn1l5H9F062WzCJ2affW82eJrZm0vMNm42e2iu2T2zEuEU58O9QVPNDhxtdvDYZPvXWDM2zg8cY3baJLN3vzbbVBE7oxeY3f5etM00u22m2e2+vWd2x3tmd84ye3ep2YZNSdw73zO7e1YiljZtTsTZ2S+bnfNym3271uz7XxIBhmj6ZaPZktVmH3ybbPO/TUQt8c5/xWzou2YvfWn28pdmr3xpNm1pItCI+/Uas5ummj0+3+z9FWZPzDe7Z3ZSfhiwPfVhXoR++YPZHTOT9BCBC39oswteM3tnqdnaDWbHTDB7a0kiALEBQbdqbVLmW95JGCMC4T71K7MJnyYMYHfy85S5oDbjStCxCIiACIiACHQCgS4Rf4ieJ5980k444QRDfA0dOrRq23333YO4Q8DFH8Qf4mjIkCF2+eWX22effVYlED08Yb/++uuQNmJq5MiRtt9++9lf//pX22233Wz//fe3P/7xj7bHHnvYwQcfHIQatq1duzYIvPPOOy+Is9dee8323HPPEP64446zSy65xO6++27jOh67BQsW2FlnnWWnnHJK2E4++WQ76qij7G9/+5sde+yx6XXun3rqqTZu3DhbvXp1EKSHH3647b333rbddtvZzjvvbPvuu6+ddtppQXgi/m677Ta75pprQjmchXsM/dzL29E9ZBE9iKdjJ5g9Ms9s3gqzs14ye+6zRLAMmWZ2/Vtm3/yciR7ywbN1wrNmB48xu3JKsl01xYyN89MnJULwpS8SgfPz+kToXTTZ7KLXku3cV8z2HGV2wGizC19Ltosnm136utmkz83WbUzyufpNs2vfNFu5NhF5T39s9v/eZfb/3Gm2w4Nmh4w1m7wose+jVYn9f3zAjO1PD5rN/SZJ58hnzPZ5wuyvD5v9/j6zPz9kdvxEs7krEhsRhMdNTETw9K/NsOVPD5mdMDFJ859PJWVCxMENUYu4vPINs1tnmF32emIPtv3h/iT9/3m7Wd/7zXZ5NBF2xEVkEofyI1YR2JRj+wfMdnvM7OTnzK5/OxGheAj1EQEREAEREIFmEugy8ffYY48FEfXOB8OAQAAAFxVJREFUO+/YRx99ZB9//HG6cb7rrrsGL1tR4HCOQPviiy+C4MKrh1grhkP44eVDaA0cONCuuuoqmzJlSkjzoosusjvuuCPke/zxxxu2fPrpp7ZmzRpbtmyZPf3008G2ww47zF588UW7//77Q15fffVVyIvuYDx2dM+SD/bgveM6G/bMmjXLjjzyyFAmzv2exyUOHkO8iZT3X//6l+Ht/OSTT0JcBDH5fvjhhzZ+/PhQXsro5ads2ED+W/pBwHz6nRkeqJ0eMTvxWbPr3jIbEIk/vIBcQ7Ag+BA8fIL4m2iGoBox0+zWwnbhZLPDnzZD/BGHvPCEjfzA7D8zzIZPN7v5nUT8HTLObNj0ZMMTiKcMUYRX7aF5Zvs/ZYbwwo775yTCj+Ola5K0Dns66wJGXCGYSB9BiTh7eJ7ZXbMSoUp5vlqdlBXRRVi6eelGvuFts4Evmb3zVcJl9nKzvz9uNuPrpLsYUYwgJA/K/8mqxFN46Fizfi+YPbXAbMxHbcFePIZvf2W2/YOJl2/mMgteytnfJJ5VPKP7Ppl4F0kTr+Tn3ydeSjhRfvKAmz4iIAIiIAIi0EwCXSL+EE0Irp122sl22WWX4IXDE+cbwo8NAYWoKgo7zhmTN2LEiOBVw/NWFEGc4xXEu4gX8YADDrCbb77ZHnnkkdDFiteQruNzzjnHrrzyytCVTF5z5syxk046KcTBQ0h37HXXXWf9+/cPAgzBhrePDbGIiCt+yBuQRxxxRNi7SPNysMcjee211wYvH/n9+c9/toMOOiicI0jxBuKlxAt4+umn2xNPPBHyI224IBbpfibtLf0gLGYtNzvt+cQ7tf+TZv1eTDa8a4yzoxu0/4tmeN8QQm8uTkQJnjw8dHiqdi3ZdnnM7OjxWXgcuIiZvUaZ7f5Ymx0zoc3+/Uxb8JD95WGzoye02aHj2mzHh9uCGKVb2YUp6ZPPGS+YbXev2a4jzZ740Oy+OYlodbH6xQ+JWCIuIvKSyUl3Kl29N7yVdFEjCvEgnvKc2agPEo8f4V9daPbvZ8xGzU/KfPqkNhuzILF3zjeJSEQg3zs78UgiGp//zGznR83+v7sSkXfJ62bXvW126LhEDCI+Ea4wfW1hJn53fdTsN3eZ/e+7zU56Ds9imw14MfFQIrIZy8i2cl0mtre0jhVPBERABERABNoj0CXiD8FEFyzdmXj8GE+3atWqdOOcDZFD9ymiLP4gnr755hu74IILbPvttw/ePbxr8Ycw5IMwRITRhcoYwUsvvTR49e677z5ju/fee41uWo5JA3GFwOMaXbJ45iZOnBi6Zfv27Ws77LBDEKYIwxNPPNEWLlwYZxuOSWPevHmhS/mQQw6xUaNGBbHHeD7sYmMyx7Rp00LXLzbBgnGIeBqfeeYZu+KKK+zss88O588991zghNAjLqwQsXgJy8RnlUE1LpR1+yJ0ECy/uTvpCv7304mnDfE1YobZ8p+S8Wx0+R4wxuyfo832r2wcx+fcx/uHF4xxboyJ22Nk0o1MVyvjARGIjJGja5YxeGdMSjyCCDLEKeP+EJ7XvJmM5WPcIF2pfxuZdN3+9t5EGHL+wJwkPGPo8PCd84oZ5UEEIsoYn4gQZEwgXbkPzk08bZxfMSXpIkbM0R089qNEEFJuxiHiLSQvBDBiE28h27OfJgKUcX94ORnjh9jDM3ntW4ndpIG3k/B4DfFGYi9sF6w0+890s/91h9n/vMPsv+4x+8MDyR5vJxNx9BEBERABERCBZhLoMvGH0GEMHAIO4RNvl112WfDG4RHjfixwED94Dpk4wYSLiy++2AiPCOOefzhGNNJl+vvf/z4IQAQeY/MQdWeeeWbYzjjjDNtnn33CGL6ff/45iD+6WhkLiGcSDyFCiy5cvIB0F9P9y0SVm266yZYuXepZpnv3/B144IEhPOWk65lJJAhL7y7mnLGL//jHP4KHD08mY/zo/n388cdDVzUTVcjHy0e52MiDLS5zakCDB6n4W2d21Phk3BoChu7fm6eZzViWePfo0qSLE0GGeGH8H2PsGCd4/LPJxIQTnjM7crzZsRPNTnrejHPGzzFZA4FDNybiD9HDWDzG+u020ux/32P2+/vN9hiVjIv77/vy4o94l4fxcW1hXB0eyf9zT+K9Q2Cd/6rZx6uSMXT3zU66Vh99Pxnbh4eNiSGIWcYuIv4Yk8gYRgTZSc8mEzgoz4tfJPf+8USSH13OTIBBDMKDPEgXsYqgxYvJZJMbpybCjXGHdBuTF2MKKQ9Cl/L+n7uTbmjiUJ5nPm6z/+s2s9/dm+SFTfs8mYRFaCIO6QpmfCRCVh8REAEREAERaCaBpos/hBxeL8TMSy+9FLp/6QJmY/weQguhNGzYsNDViXcLj5l/EDx4vriPUMI7SNcoIsk9a4QlH0Qa3jO8h3jp8Oade+65QXAxrm/s2LFhfB/XmFWLXYzJQ1TisSMe+ZAGNiHObrnlljDD17uQ6f4tfrCRGbpHH3106CpesmSJ3X777cEGRB1xCIOAPeaYY+zf//53mODB5BcYIFgRx9hLGZl17Mu+eF4uAv18S/Z41lb8TJdkWxApez9uxvg5unnxaP26MfGgIbIQSGhrBCMbIub/viOZAHHq84ko+uODbcEz5ud/ecjssfcT0UgcxA+CCC/ee8vN3l6SCMYLXjV7b5nZC18kE0UYC4jHj+5Zxv8d8bQZopDJGnfPTgQjAunclxNxyixZRCCeScpDunRl0408eFqbIQLHLEhsw8NHVyveNTxrjDVktjPLwNBVTPmZ7fvZd0l6TEYhLOP/6AZH/DG+kckozBQ+aEwiZHcfaYZwRMSd/UoinhHQbAhBJoTAc9GPZseMN/vdfWbEYdLHfk8mZaEr+qZ3krF/iHGEIOP/9BEBERABERCBZhJoqvhDsDBOjqVVmH3r3a50vfoxy7Aw9o8ZtVxDLLGciosdvHl0jZ5//vnp0ih44RBwdNG6l5AuUsQlnj08Z3jYEJaMs2OcH94/Zvtyn7QQXIgyxvwx9u7OO++0AQMGBPE2fPhwY5LIq6++GjySd911V7jH0i5lY+5c/CHsELnYhFdx6tSpNmPGDKN7mfIw7o+xe9iH8MNDSBi6qgmHHXgoJ0yYENJwBswU5j6TU7y8W9IoEH90tTLxgBmpeMme/DA/4SOe7cvEDXeu4sVjti1x8fghgra7Lxn/xznLvTCDlQkePkkEQUd3MZ4xvIaMsWPsG12peOHwFOJBozsWLyMi7swXkvF0hGdcHl2uTKI475WkexYBx0QM4jGLmHGC5INAw3P2+iKzy95Iru/4iBndxnjsyA9PnnvjGL+HGKM8jL9jbCCTWZi5fMrzyUQQZiAzPhHRhzBlSZqjnknyZaYvHkqEKt4/BCMb6TG5gy5p4oz7KPE6MssYkYy4xRa8kSxng5eRCTikQT50FesjAiIgAiIgAs0k0HTxx+LFLJFC9ykTLZhIMWjQoHCOd4yxeUzQQJBxTheod3kyyQMD6erlHl2oiB9EkHvmmAWLSMIL+Oyzzxrj5RB+iEq6WZlBi3jDW0hXLp48riEgEV2Ex/s2evToICgZW4hNTA759ttvw7IxLA3DJBDEG3kVP7H4W7RoUSpcPayLOCak0K3M+D7E6F577RXEKYIXWxCP8MGLSN6Un/IyOxihiLezTHwW7al1jul49BCAiBbEUK2lXpiAwKzXTxBXldmuCBTG49G1y9IkTOZgmRI8Voy5w5OFqHLxh6BjCZm/PZaIt6veSMbRIXoQaW8sSiaILPwxGe+HSGO9PYQe3kJsY8IFwo71BBGfCMHDxyWetacWJJ418mHtQMYS0j3NLFqWbkG40QW9al024YNubDx/Ez9NRN8VbyRjFBGJeBof+yARYXT/7v5YIpApPx5GhC1ClTiM28M2xhcy0YPuXjx+51S8k4hDPJSER1AThzGJeDBZFgevI3YiBFkmhnTwRpY0r1rVqesiIAIiIAIisEUEmir+sAjhg4BByLBgMmP9mBDBgs549eh2pRsULxvChrBsiDlEEKILwYQAchHFfRZZZg0+vHt4xhhXhycPryFdt3gX8QQiGvGmsZ4eYov1/fC84WUkTcQjQouZtHgT6XYmP7qlEXuIxR133DGINNImn+KnTPzFYdxuPJUIOPJCvDIjGaEJj5dffjmcM54RDyPePybBkDY20i3sXsU47Y4cI1sRZr7On4s/PF+IH5ZSQXSxxh7HdAfj7aL789OKUGHiBF6sw8YlogXBgwePDS8WiyLzKxd4GRFli380u2VqMr4PrxjeQTx8hMGb6JMisIs4eOaunpLYgBjk10ZYgBpPI+IJ8UlXLIsqMwOXblJm/SK2GOPHYsms30fXMrbSXc0sWrp+6ZJ2zx+CEzsQgXTREh6BydIsbAi//3EbC1u3BV50+yKcmS2Nd5A4rJOIaKP7nHLhTWWdQMQgYwMJy8SRD1cmYxTxtCJOmSRCVzPjChF/iFrEITN/YaaPCIiACIiACDSTQNPFnxuPAELEsNgz3av8ageLN+NpY7wdggdRRzhE4fTp00PXK92vZb/sgVBklizeMsbJIeAQSngFEX8IKjxtTz31VJggQrcuY/7oXuY+4tHH1ZEfggyvG13MTDzBE8iYPyaMIED79esXlo5hckhRADYi/giDBxSvJF5F7GbiB2kjBMmHfFlomg1RyFhHeHTWh5TW/JqIHsQU6+Gxxh0ePbpn6frEe0f3JN3BjE179INECCJWEF108dJ9i9Dybl/O2bjPJAjGy9Hlya9u0M1513tJ2D1HtYXuWrp2GefHL2pMXmg2fWkywYQ4CCXG7zEp4qOV2NFm/xqTdPUi8j78NvEMYiddqowdHPau2XETEk8eoosuVSaYMI5x/CeJZw8vJSKXWb10r/LrHeSDKGTsHpNQEJAPzktYwOTCV5MuW8YW+k/L4UlEnOIhZC0/RCBiDu8es5wRxQholnrxn3NjxjSLPOMlxWPIBBJENR5OmLFn2R3isWh159V4Z7UcpSMCIiACItBKBLpM/AENAUQ3MF4+fu6N7lgWYz700EODUOM+H7yB/FQaEx8wEK9hUQQRlnB495ghjOgjDCIQrx8TOhB7ePnYM0sXkYeQRAjiYXNvIkLy+eefD9fwsDEeD/GIbdiKlxKxyjn5xRNSsJd8SYuuZSZ7FG31MExIYUkYBCQ24GEkPJNJOOceIpRZxngIiyIzwNmKP+jIxT+2BRGCeMMLRdcuS5DgrcL7hyjCY+aePLpe3//WbMi7SVcv3b1MCGG824nPmZ31cnLOdYQf4ouuXoQRY/BYBoUwg95OBBFdvYyHw9OFt41xe8wuHjot6apFaDGeD2HKmDvG2CEU+Tk0vIN48hBgrEdI+pQBTx/bF98n9/BYsjg0Hk4ELZND6GplrCATLOhyfuHzivhclHQr0137zCeJ8CU84g1PH92zjAXEG4hnEm8d5UTEwYSfnHvk/UQg053M7GnW/0PUzV/JTO1kzCFlOHVSEg9vIRNRWGAau79akwhZxjk+91kSZyuqWVFFQAREQAREoC6BLhV/bgmiBsHFRBC6N/H6FWfuMr4Pz2CZkPJ02OMtpKuW9AiLwMPjxzU2juM1AQmDR41fGvHfEiYNungRX3gi+fUPflGEvQs9wnCtbNIFadLlzDp+TPRo74NwpQsZAYy97LGJ65Qbu/GSdvYH8UJ3Kx4xRBPiiA2hxtp3zE6lqxVvIJMtwmLH6xMvHuKHcO1teOLw0NGF6aIMDyDr17lHiwkadCszvo+8EGKMj+MaYhRvIIKIdBCL2Bg7QCkH3rTgYYzGyRGGsKSB1w2xuPCHxJuGYGRjnB0M6F7FHuIwI5exjYg9fqWDLmHGBvIhHWzDK0lY4iKIWaeQGcx4Kul+9g9pLl6djH0kPeLQZcxYP36/mAkq8IAnQhIxSxy6o+kmph6ck6epvQiIgAiIgAh0JoEg/vB0Mb6sPaHVWRmTDxtiByHIvpi3h2kvz2I4T5c0Pd2ytP0e6XsaHsf3fj0OU0zL7eN6nKZfL9t7uu3ty+JuzTUXO4gnH2OHOOGcze9zz++H65X7fr3W3tPxfQhXWbw5FjSeD+E8DPs4nh+zx8Y4Pgzc7vi6p+vhwz5K19Msi+P3fO9h4nw8fQ/jew/rdcN1ykPc2FYPH+89LnuuexxPS3sREAEREAER6GwCQfwx7qwrxV9nF0LpiYAIiIAIiIAIiIAINEZA4q8xTgolAiIgAiIgAiIgAi1BQOKvJapRhRABERABERABERCBxghI/DXGSaFEQAREQAREQAREoCUISPy1RDWqECIgAiIgAiIgAiLQGAGJv8Y4KZQIiIAIiIAIiIAItAQBib+WqEYVQgREQAREQAREQAQaIyDx1xgnhRIBERABERABERCBliAg8dcS1ahCiIAIiIAIiIAIiEBjBCT+GuOkUCIgAiIgAiIgAiLQEgQk/lqiGlUIERABERABERABEWiMgMRfY5wUSgREQAREQAREQARagoDEX0tUowohAiIgAiIgAiIgAo0RkPhrjJNCiYAIiIAIiIAIiEBLEJD4a4lqVCFEQAREQAREQAREoDECEn+NcVIoERABERABERABEWgJAhJ/LVGNKoQIiIAIiIAIiIAINEZA4q8xTgolAiIgAiIgAiIgAi1BQOKvJapRhRABERABERABERCBxghI/DXGSaFEQAREQAREQAREoCUISPy1RDWqECIgAiIgAiIgAiLQGAGJv8Y4KZQIiIAIiIAIiIAItAQBib+WqEYVQgREQAREQAREQAQaIyDx1xgnhRIBERABERABERCBliAg8dcS1ahCiIAIiIAIiIAIiEBjBCT+GuOkUCIgAiIgAiIgAiLQEgQk/lqiGlUIERABERABERABEWiMgMRfY5wUSgREQAREQAREQARagoDEX0tUowohAiIgAiIgAiIgAo0RmDdvnvW57rrrbOXKldbW1tZYLIUSAREQAREQAREQARHokQSmT58u8dcja05Gi4AIiIAIiIAIiEAHCeDomzhxosRfB7kpuAiIgAiIgAiIgAj0SAKIvylTpkj89cjak9EiIAIiIAIiIAIi0EECiL+pU6dK/HWQm4KLgAiIgAiIgAiIQI8kIPHXI6tNRouACIiACIiACIjAlhFA/L300kvy/G0ZPsUSAREQAREQAREQgZ5FAPE3YcIEib+eVW2yVgREQAREQAREQAS2jEDa7Xv99ddrnb8tY6hYIiACIiACIiACItBjCEj89ZiqkqEiIAIiIAIiIAIisPUEJP62nqFSEAEREAEREAEREIEeQwDx9+qrr1ofdfv2mDqToSIgAiIgAiIgAiKwxQQQf5MmTUrE37Jly2zz5s1bnJgiioAIiIAIiIAIiIAIdG8CaL10kefXX3/dVq9ebZs2bWpo27hxo23YsCFs69evN9/8WnFPeLZG0+8N4ZwJrJwf+yI7zj2sGGbt05k4L2fo58W9h29Vhl4+L3c9Hh62VVn4+4PytccjDtPqPJyL9tl7RCzEoje1Ad6HK1assPHjx1ufa6+91oYPH25PPPGEjRs3Lmxjx44138aMGWOjR4/ObY8//rgNGjTIzjvvPOvfv79dfPHFdvbZZ9uAAQPs8ssvtxtvvNEuuOCCkO5VV11lQ4YMsaeeekpbxODJJ5+0e+65x84//3w799xzrV+/foEn7K644gq76KKLwn265W+44QYbOXKk+EX8aE8wuemmmwLDgQMHBoaXXXaZDRs2zDi/8sor7bHHHrNLLrkktMXe0AZvv/32UHZvUxdeeGF4VmFAu7r33nvNn8lRo0a1dJviGRsxYkR4lrx98Lxx7ZxzzrGzzjrLHnnkkfC+uvrqq43wvaGNqIz6LlIbaJ02UNRnfo52cx3HHn3Hnu9ENNn/D9GbLchmRa6YAAAAAElFTkSuQmCC;" vertex="1" parent="1">
          <mxGeometry x="10" y="160" width="639" height="221" as="geometry" />
        </mxCell>
        <mxCell id="qfzSOr-zgeNYvHdIqy-h-22" value="" style="endArrow=classic;startArrow=classic;html=1;" edge="1" parent="1">
          <mxGeometry width="50" height="50" relative="1" as="geometry">
            <mxPoint x="80" y="440" as="sourcePoint" />
            <mxPoint x="80" y="310" as="targetPoint" />
          </mxGeometry>
        </mxCell>
        <mxCell id="qfzSOr-zgeNYvHdIqy-h-24" value="未选择文件 ，按钮不可点" style="text;html=1;align=center;verticalAlign=middle;resizable=0;points=[];autosize=1;strokeColor=none;fillColor=none;" vertex="1" parent="1">
          <mxGeometry x="90" y="390" width="150" height="20" as="geometry" />
        </mxCell>
        <mxCell id="qfzSOr-zgeNYvHdIqy-h-25" value="提交文件" style="text;html=1;align=center;verticalAlign=middle;resizable=0;points=[];autosize=1;strokeColor=none;fillColor=none;" vertex="1" parent="1">
          <mxGeometry x="50" y="440" width="60" height="20" as="geometry" />
        </mxCell>
        <mxCell id="qfzSOr-zgeNYvHdIqy-h-29" style="edgeStyle=orthogonalEdgeStyle;rounded=0;orthogonalLoop=1;jettySize=auto;html=1;" edge="1" parent="1" source="qfzSOr-zgeNYvHdIqy-h-26">
          <mxGeometry relative="1" as="geometry">
            <mxPoint x="180" y="500" as="targetPoint" />
          </mxGeometry>
        </mxCell>
        <mxCell id="qfzSOr-zgeNYvHdIqy-h-33" style="edgeStyle=orthogonalEdgeStyle;rounded=0;orthogonalLoop=1;jettySize=auto;html=1;entryX=0.109;entryY=0.001;entryDx=0;entryDy=0;entryPerimeter=0;" edge="1" parent="1" source="qfzSOr-zgeNYvHdIqy-h-26" target="qfzSOr-zgeNYvHdIqy-h-38">
          <mxGeometry relative="1" as="geometry">
            <mxPoint x="80" y="620" as="targetPoint" />
          </mxGeometry>
        </mxCell>
        <mxCell id="qfzSOr-zgeNYvHdIqy-h-26" value="接口返回" style="rhombus;whiteSpace=wrap;html=1;" vertex="1" parent="1">
          <mxGeometry x="40" y="460" width="80" height="80" as="geometry" />
        </mxCell>
        <mxCell id="qfzSOr-zgeNYvHdIqy-h-30" value="成功" style="text;html=1;align=center;verticalAlign=middle;resizable=0;points=[];autosize=1;strokeColor=none;fillColor=none;" vertex="1" parent="1">
          <mxGeometry x="120" y="480" width="40" height="20" as="geometry" />
        </mxCell>
        <mxCell id="qfzSOr-zgeNYvHdIqy-h-34" value="失败" style="text;html=1;align=center;verticalAlign=middle;resizable=0;points=[];autosize=1;strokeColor=none;fillColor=none;" vertex="1" parent="1">
          <mxGeometry x="80" y="550" width="40" height="20" as="geometry" />
        </mxCell>
        <mxCell id="qfzSOr-zgeNYvHdIqy-h-37" value="" style="shape=image;verticalLabelPosition=bottom;labelBackgroundColor=#ffffff;verticalAlign=top;aspect=fixed;imageAspect=0;image=data:image/png,iVBORw0KGgoAAAANSUhEUgAAAnsAAAC8CAYAAAAARmiyAAAgAElEQVR4Ae2dXXIbOaxG7568rvh9ZhOu7CELcJYwdReQ8sPdwLylKmuYvsUfNEEQZLdkUe6WTqpS6h8SBA5A8lPLsv/nr7/+WvgHAQhAAAIQgAAEIPCYBP4HsfeYiSUqCEAAAhCAAAQgEAgg9qgDCEAAAhCAAAQg8MAEEHsPnFxCgwAEIAABCEAAAog9agACEIAABCAAAQg8MAHE3gMnl9AgAAEIQAACEIAAYo8agAAEIAABCEAAAg9MALH3wMklNAhAAAIQgAAEIIDYowYgAAEIQAACEIDAAxNA7D1wcgkNAhCAAAQgAAEIIPaoAQhAAAIQgAAEIPDABBB7D5xcQoMABCAAAQhAAAKIPWoAAhCAAAQgAAEIPDABxN4DJ5fQIAABCEAAAhCAAGKPGoAABCAAAQhAAAIPTACx98DJJTQIQAACEIAABCCA2KMGIAABCEAAAhCAwAMTQOw9cHIJDQIQgAAEIAABCCD2qAEIQAACEIAABCDwwAQQew+cXEKDAAQgAAEIQAACiD1qAAIQgAAEIAABCDwwAcTeAyeX0CAAAQhAAAIQgABijxqAAAQgAAEIQAACD0wAsffAySU0CEAAAhCAAAQggNijBiAAAQhAAAIQgMADE0DsPXByCQ0CEIAABCAAAQgg9qgBCEAAAhCAAAQg8MAEEHsPnFxCgwAEIAABCEAAAog9agACEIAABCAAAQg8MAHE3gMnl9AgAAEIQAACEIAAYo8agAAEIAABCEAAAg9MALH3wMklNAhAAAIQgAAEIIDYu7AGPr6/LK8//7S9fr8vry+vy/vv9hZXIAABCEBgH4E/P1+Xl2/vi7PK7jNw11Yfy9tg3Q/7xXliuR+4mOOXt+WjN2TcTwf3e/243iVwJ7EXJsTL8vZL/GgnyJ4JHifOy8vysuf/d1VGsXB29mts1wKuJ/aib3pMCfWC18ts/Fnev3WE5wVjfmlTPaF/vW0viiqPruD+0mDS4DGHp9morgGm5nLMRz0/dlm8tt8u47MbXTvvUr+yBmo/r7WpbXziOMy9gWD5hGWn68fytjE/9uwFjuHhpd66XXca5ahuKWdxvvdES16v/JyLhfwa23ri5otrw7h5m9MdMXV53MaDZ7RyPrG3Q1BdJprU5rWjAtxFIy6WvpgsoiQVeCtUywRPfr9HEde2M5tqHDP3zYtK20d8Mn13xGmbpHdiWrC3E1ba9P0I/ihf9ISuxF7KSWunsPrzW973Z6476sLGJOdpwRZW+15LXsXKsiw5D+viPqiLGFuz6fXi7vlUeCgv1GGwp3irO9cfmvkitXcJ/9jn1n61EV2TV6k5N79hiGt9H/Zr51KJpr9uvIcnYM2bU1Mre/IS63R+PmJMv4PYe1lesl/71gyJ6W35kHq7MG533S6Qy5FeV8tV/2g0v7+9Lx+D/NT1JWvY+/Kn+WRoVBvillMjzdoibXuvvbVnXBcxf2uNSRzqQYs33HAu5A6xzdb65hnnWo/A+cTe1iSX+2sB9kKX62bzksud13bRSAW+bvC5X1rE/GKN95zJGDcn5Xc9kbRDvs9u+0sWLz2EPnY3g3YRcsfXduwk1xM6jLEy8ePTpurj1L5eQOsWtzxrayBZt/nrjhnj9p7KXhD3nrz+/rP8cXPX9WzHDa/ewzh/8sduKQZPhKz5sXWwY9SbN8k5sPO2GieyE6Fxxauay0tV39Uoy7K0c8m2COd2fsXzdc6093fX481rxPNeXevWf2pj41I9ncN9c6Y3Zx2Dyy5uOYYoWr16Vtds3uoxU+5F/C5Lf/5Uc0rVVutvttl74lg7kM/SuOscdduYi3l+vP2UuS9vhvRDAdNH6lj26fzazMPIz98/W4tc2UNgstjzCje8UwjX63cMzQQPyVYLWQimLWo/RL+dTIALFm01frTpFKg7kWOh9gvexhpsh0lm/XZty2SRyR4nXJoUbfsUczORfGydq71FINnWi0M7vjGpFsB4R0/oajNMY17kt+JgRr35qeSrMhzHr2u6ui8nuTY0N7klC/2uuC+I19ZbGc8/iu1NrVcbTfdeHX93XJ1334X5V3MedrEWb67pk/t660d5yt3OJRlSv9r5Zfna+/V6csX619uItVNXHgdf0xzw9gh/jXbnTLVuFGciC7dO6xoNPSzH7Xno5MvUtJeLttZy7LKWF/fVkTOWuhv9Xz/lUDdyrbrMVLP18Mr2bUzLEt/YVD+2tY4SdvFm7093d9SB2o+1RY73EZgs9sSJlMhSGG3Cqwknhff9o/ohXX/B9BeG8k5JfOhNGutbal/5Iyay4FwnkLvh5kV1MIFr28WvenFu36lHN6rFLfku/tR286T75ARpbK4sit9yKbYdxN18BKYXSCeuUi8ywui1ZjFq2d7za6Btl66EPAnzdMWw0HFpI7Fe+m8CZJPZJ6xC3QeRv8d345/2yTnu5zw03m+rtpP6bcV2Wc4d5/deymvMJePF+dnMp738jciI48s1Yfo+/Hk2O7/iuSto1Jq4zkcZQ378QYGKdSm+qOs515cw0r2vPa7rZmylnYt++1E7b7yadcixx8cfK4md7adS+8YY5K0zfLqc6rJepwYdLpkPm+tYEXx2/BCzvVb8VYzNGurlaBANtxwCXyj21IL08rbEnz8JC2l34XG8v+hSb9L4i3WvuPSiERf/rcX2xQoD+06y+BXtrYuzL/bsmHripHtlwti2ly/axbcWdXuvXrzaHr7Y03WQjt9+pZz0hUGJUY8S4202Y92id+zXQLe1EXuJsyzuwuVD/fxNuhae5LyGn1cKNeP6eYEfcZ7IzzD5PIr/wlN8LHe8o17tS9sQr647uW5fu3bE96rDBbFX/bZPYn7UvIo9LtncQofuurTDb7NxxfErBlIfo9po1wPL186/Om6pyy8Ue5l5mtf9WrRx1Rk2rNz1t50Pbc2WvI3HCx9N1j9nmPzZ40e7toXYvbljc1diHuStNGqPMmtvrLax1PfojWjoJTG3fF2b60fS0j70f1vewjeUdd7iWhjyIe3k4+BSI5s58h3gqiLwhWJPJVYepXubYLVAmCLRBdM9lnGkUC+w4WzIdtGoF9T0UXOZYPVEjW2tn6H4v6VJZm31F4B24Q85FftlfMm0mUhyees1shd+tnEdW7g78jf2tvbieZnQZYS8EP8Mv87G3O/2kQXLtC9GB0dpvGoBsnky55qxcJf+7j0jNqSPbitP9i4S5UE0OHVaBZuFShCa9XhVq/Uk5tHEG2PLMQTfKzuVcFnNOB+P5Xtu+5zz9Rv7xc5njyJrw7/5Ms1wkLx2WBuxz7bfiWc9j+K1NW9qLsX6DmtUW8d2ftU22vlXx63GsLHm+mh/bVTqc1E9Wtve+TqHL593b79UHNFO4rrGKtd+1b8Ka1SzlqPncl/sO63d+nbaySXx+XeKTdaRrddRXiIPLZ5krN5r9NnsjWt9hk7Zt+paz5i5LrbV/GmZh1pQc2StkWSrbW/G4HSTwH3F3vfwFf+wiJnEilAYFpKa5CqsZhKLLVVYqbnfv/czBL3iiuN9f1t/p16cVGqs2h9/zNp2ahMmrvSNNpvNtiz+8X7DKtl5+fbaCKR6PAVv63C4aLWxxXEav80CMpjQxR3ZQC+sk3XRLJb2Hcl4O1tbsSPdAq9cC8KiEkXSbn3NOVP1I/22Fnp9f7Toh6FivYQxhvlcnXJF+2qjmV9tDGKpV3f+9ctyIGPsedW+r+1jrdjazOdmbqWcqI1oNRIOtvwO99PTDF0LtU92LmWm2Y/Y1s6rjW97rvWx1pYdQwUR68KLL/XZqi9lad+h2cj3dZJWKg4131ee6zXVzv74jdRw5uvXo4wnr8mezG+56r7unGepb7Zras61u/Oi1Iuut51dS7N1fpR9R26K/bXGbG2q817ttMzDPFE1aGqkbS/e8LqXwB3EXloMY2GsC49JrJl8vvN5UqhCGhbbOpZYqye/XL1E7KVFv/4Ibl1kokE7hj1Po9aFm/hU71izc7GdjWOdhGqjigtFGSv4VCZ6ut6bdIVDe5TibSd7jqL5PX+uv9rsuhDni2ZCl6Z9JnVspUc8svbN7f6pjNdvsXknjG1ztdnpDg0iE/l4ptTIaGQvj5p7vC+bU1co5CdN0k4NWM+ZfOPq3CnDncP+eMKl0zFcjvGFuZY3ovVczT9vTcpxC0t5TSPZOenlpb1W22j52vt13K29NepuDq2fa4/PHcRcq3VlD9O1jlQcqmbWWL1rjdhTNnbtPTlr8VepBL/TejHcf7ya0NfyWhH9DtfX+AZoA6dhO+VXsxalmGufVQ68YSNLvZe0jWzNrS1y396+E/tVsQTfEXsrvwkHc8VeTHiZHCXxJrG7Jlw9QYVFmCxF2KSrfgF6xb5vwQ5WZRx51eOXd3tpjBKn73Nb6MFa29aPQ0Y2r3pyxeM0caIN5yMh09s9Hfe9wl/lVxww+1wWIFl8Sn3UrMp112Fr323kXQx2d2z8XtdwrYkj/x6xHZtYqZWeced6tCusnPvqUtxM9KK6o6+t8aY2xUaO284/Gb7O3Xq1eZMQ71ydO7Hbf40M7OaXfR/yX+N7rzeiaqhx7YSx4xjRVs6ZPo622rlUDZFPIk8bh2o4vp/GKHNtY+1TwmTISI2/+9DGH+pJ16gxVNeRYhXtpHVuzbG6pp9kVzUd25T5Xts3g1enKde9eq+aqpNeXuJ1/fPqeZ/Zm6PKjzgnU05vl69cM4Oaq7iqmGVNtL7EPKnaSrGGHCa2w9gHNaKH5tgnMFfsrWPaBTGcKxXvij3b58LFyilQd1LLxrX6mg7ctkr0ycc3w+LURa0K1bdt421/Bse4uD51CBNKFg75dZZ6UtkJ19jpXeiwyYSaTTv64HBfzeuFOFzU9uM9vRnm+lB9Nu1He3VdrWMPD1r2w+bxZlkIE/v2TYe10fc/jb+7lnRdybHH3Wxq4k+sDa+9iquuGbXBxjbKX1XXYl9eY7zxfm4fxtQ5l4bhVeVZX77FsRtvh40eL/RLG2rwv1dXKbaal7ZSjsVe64/lW/roo379pFbj+4MxuvMm9dkTm/Zz8ziyV29W4vgb4nOtMxWHqpmVqbqma0rYR99MDZY67Xiu2q/jdJp6l/28hDhSTW2OL0aDHysHuSjraOCnmKrb1x8m1uVhhrU0qP2N+dXGbOaYqZG2vfWF8y0ChxB7H9/Vt3FXj03y1+v1QTWJ61vuWZys66TYKubWxHC8XOD9yZHsuYWrFhQZNbZzNuUUg37078Sx0xcZy32NNnqbXBpTv7vs+bvatvb04hXvabFXFq4Yr/OziKtdOXAYyq3x62DR6nZMfXT83ab5xiafLQNyf1ecTk1I/1wb/ibuzDunfT2PgmFTD9FH2cAllwNmtjbE1xu8Rl/tPHJi6g/lMFkbp5h8lmujdJDHXD8SXm8bduv1+sDWz7oOiOB3X4V9bas6i7nqzfOq5W1OIgflVxjfEzF5tBj3el+xUjWz5lhd086G+zJX17aufd0rHcfx1z0j36/qW+p872vNuo4vizdbr2FYl1Oe59a/NozLr+R6FW6NgchA5VE3iPfqOPXtJmZ9MxzbGrH3Ob+YwBeLvbL4N8nXyf7ExHIX4cpep1g7KPWiUTcpi1Bo446bO6TFIy8MeRGzC1BoGtuZSd9tpyd7FZ8WhbXH22clP23bEq/c8/yVe/HVLMRVzlW+q+uhY7xX/sRSZVOdeGzU7cHhBRu2WMk+VXmuuLd1tckn247tuk+S5J18a19cC6+Rha4JfTMcR18dG+F6rEnZRHKdqjpMtsN1vZgHhq/L+/+Fb0F6ucr21k3bONTzx+Nsum6dunVxkd0cW/OnrMLIF9SO1IdimXxv55IXU6oLERRt7vbWV2M7+qVz2bQwF1LMXRFgWjenkX3yP7zR/xAurlit18nqTUW0k/xec6yu6XHD/Z6/kVuvLmUuDe6nGmjzIeNv5aUdvzNXAifrR67jXmziw9Zr8KFay7LdZrzV0EbNbtRUG/NqOB3E8ftM/TXI2OC0IvA1Yk8KSW0WTfK9wq5cTyejSew0L8KhWVj2LXb+eHlyrot4OLf2chvv9yxFHra9L/aamPJCKRNVJkGZ/GVcadPYGFxo8rK2TXbLOPJRsmxGvVeJ0/RfJ7e5vm6maYPpPzX9zAa0ZXsNej2IXLKYEuZ931K32GetkdVUcxD/7q/MEa99zPnWQti/LwNGv6vNw7KXlvKaOeW4NYPxO/HcrxpLbKbXXp1VY9Rddp/FOC3HzHffnAj+S93aYVNs23ZKu7YORtzTvfKzTXb8ct7aLfeGRxsbc9P30vbWgNS2rIXB3u7aUKyinZSXNcfqmh423Ndrlb7XfeMTG6W8dfuGNr//rH8H16uDrbzE+038Kc7KnsdJsfR/DGR7HQghRB/MnjiKuV07NNFcs01Mpc0ac/Tf8bF3PZiI9Zf6rHaKaY46BCaLPb1QqYR6Ret8wykWekxsTzjsuf66/Pih/mB4twDTpHYnjNoo7KIRi9794f4cu+rr58C0G8Xb2Ep906TM/vfiy3ZHE9j1Ly8m1aITG+qxU8848RofldVoK2+a+jg0kckd/VQTuWIrOVK1lM2nxaq9rkYfH464m0Vwz8abFqQ99TnYhFaPc40oP/w8Srv9HFL95vYhB736kflp86u4uT7FvLYxyrzR862tsfLFqBXFzoNUD/v4ax/KsRZ3oe5el/ef4VdHXWBzZZXrdj2XDavlsjO8/OR2py96XG+AmEMdr9eoXNuc56Wpf5RrZq2XcN6tuyxE1vtq3VFrSKynEKe6VgZXfcrF6sirxzXX69hVl/akM39W39oe8UrkuWOMve06w9zosrcGy7qj63FcT2V+dtrFPHbWsVg/6d4xmNwI7WQzk8XeZO/vaL4sBqk4pVjXBavnS17Yuk99Nha6ntl7Xk+xdibetY6Eb199fy9/Di9P7vDb1cOmP5rEKRfan7QAbebiWl9P0S8vuDs2DRtOym9n0bWN73qeRZb78ek9HfmMH3lz7AguWUdWYWHFZKffTaOPa9Te/Kc684T5Xp/C/K3mqrMGlvU2CYgyXke4xfUji408B2q2er3Y6+mV7WTNX3M5Zttf61oRVThc6dtnuuW4qtxdZa+TQ21rJPbko/XId8xWm3z2Y8Tes1fAzvhbgbWz4/Rm4810+vAMAIEBgbiR30OwDXzgFgQgAAHEHjUAAQhAAAIQgAAEHpgAYu+Bk0toEIAABCAAAQhAALFHDUAAAhCAAAQgAIEHJoDYe+DkEhoEIAABCEAAAhBA7N2iBuK3lO74ba9b+DzRxvP+UHr6skj322rOtw4npgHTEIAABCAAgUjgC8Xejq9fbybpKN/EvMyP+M3W3jf0dgqC/tf1N6FNb3BbsZfZrr/GwP+LIKMx78UqjrP1Vyuu+NUo0xPGABCAAAQg8NAEnkLspU1Y/8LHy467T2p0aVzwdG8o9vIvrx2PmYSy/p1Le2KMNvXvo9IC6oLjMK79PVjd3xPm2RXBs8uXPU9Mx28cRmLPj2PnL9CVOGIdbDzVC202hbwjbD1++lrvTYOuTY4hAAEIQOCpCXy52BuLhK2N/rInam2md2zQudMeMTWKRYu3sdjLQqoSEsbzKCy1YFW/WDIKKHUeu47FkLFuTvczSn8j8nV5+/66vHx7XV5HT7nMKNXpBcI59Qs+2piLxZHYW1tZIWZ9MPetzVQful5zbWph1jteBVvqo0V89M/6kp3eqqM1Ng4gAAEIQOCpCXy52NMiqJuJXU+AtPjJxyPBFAe7RMhY767vW2/Se0WBCIkg3PrCZvTnghoRYUNyz3fGqURmFD5RwIS+A1/lT3D1RFDvus1rFENt/qW2rDBzwzRiTv/9xdje3K9tJkYrX9N2Ha93fW1g7Mj10M8RznUdSWNeIQABCEAAAjWBc4i92md1ljbH7p8iUy39w9RfRIHfpnf18r5xczYC5vXn+4YgUn83NrgSNv71SZDjWxRdIgzlfvuxr9zZft2OM8alBFgRe8H6ZU8VY19H2Iz8DH3qHNZjijB7/z4QnlaIRYHVCsjq6W2OuY4/8VqFn3bcjqHvxePUtxrD1Etzb1QLjX0uQAACEIDAMxK4k9i7fBOrN+9earLdqze81H/fWNaH1Nfd1G1Tc14/kQl2igip7+WOq4ALIuZtCX8/ttr0ldBKT/as2HN8HYoZ3b/PKAmz9LdsdYjxuslJr63uJ8JwKGbrDquYrPNQxytjJ2aFdWXKCrHIR3Ew96PNyD0JyyofJvZ1HGNjvb4e1H6vl60v+YZbK2snDiAAAQhAAAKJwB3FXmeTbTJRP5VpblcX0uZ4mTjQBrKQ+fYaxVMtGHQ753jnR8ueze4mrT4KdUasLnmCKjZwhYEjItx2+clh9WQtM/r5p4yfYw8iOcay9fSpuf+6vP/f+/LaXDcidng/15PyZXXQcPSEWZMXK8QsH3O/2FxHTU9dFbvYZhhDiFcJyvyxtutb1S6N2a0j5RKHEIAABCAAgeOLvbjpXiICbFu9mdqEK7Eo4+inZLa5PjeCQt+Kx1mENBv3kr+A4Tz96Qq4xviy2LZ7hEXlixUzMkZz3RF70jbHsufJaPRvxHbASw3XHAbB8/b9bXnRtk0MduzEKolFn9vb8iH1MBJreswo1Pa+oWnCyBdyPY7GtPecOupZ5zoEIAABCDwngeOLvWFelFgbtuvdtEKmfCRXCSOnexIJAyE5EIPladjOX/GRN/i3X8W/6mPDF/VRahAplQgJzoc4jRAxgmgNsbluGa0t40GJxYps57zxS2zlPFoh454r5pHx2/Ihr9lczI0SQfHcjN1cs9wsB3O/7q+eRmfR2uZAYh29Jg5N7Vlfsgme7I1Ycg8CEIAABITAHcWes/m7m3lqZ58W+RtbFglqY0+BjQWKBJ9E0Iv54X75KPNl8EWILLqMgCh2xYYWWEaoGZ/9+FKfZvMPP6n289X1rxYh2SNPeHYERPMt1PzRos2HxBr87t2TNuHV9SvcEHH0ssOOEXXlyyqakz5OHnTH1g4aMadvxePB/Zg7qWVdEyo2K87Xc1MHzbjhQi9XbmMuQgACEIAABGoCdxR7WvjUTtRnabO2AsIXQ5PEXnRoIBjj5queptUBpLPBBt3E0mvbuy7iyREKrrDpir2eAFdPz2aKPcWxEkwinNxX7ZsCH2wFoeUwc5morvFQ+tvrcr51X9rpVytO9T2Tw/3x+znz3hCY4TiFAAQgAIEnJXAnsfd5uo1AiiZnir2ez0mMbn5M54gOsVjHku1FYaOFzEBsGqEgdsOrK2y6Yk+Pp63o47EfF4kU/dTL8Al2rMDXXsTjoXgqHK0dl4k1bsRc7OOKTS22vDcw4kf78bIdMo7hCPbSLrGPP5P4kr6FjagrdDiCAAQgAIF9BO4j9sJGKpta3LDVUzF7nn8vm93UaoEkwd1f7CVx423y4lN6HQkMP5bQL8cjIkOLo9q8+hg3iIvijysghiLJGG5Ot8WeFVeNiZ4IVQ0TVy2kesc9gSrs2vujXKwuRPEpYxae1f2tfMS8qb4b3N1c5QETjxyLEsbx+sCP9JFvimNPXtb4OIAABCAAgYclcAexl8XC948l/fKO/ORDxF8Wd6sYFGFgftWEL5DyBr/akjyNBYq0EnG1b1OUJzZqMy+GzFHPr9TMjyXdiwJAxJ7+4oUdQf2uPS2MXdsbosOYNqd7WZpuF54GvzfzMIhjjdtpMxJ7sV/mrTk27psnf+V+qgvX9+iLCMjOa1W7UmPqzVAYSIm9OO5q1wrblKsYR2yzp1ZLJBxBAAIQgMBjEpgu9uJmap9EmM0rCRy9cVlBmH9diRJB6w+4D665G3CVx/1CJokC7WMxZAVa9M3GXJrH301X+1Y2+frj4SwajfCVXz682lg3/46gUIyGgkb5uB5m23U/8Wt7PD9PLUctuvw+Mlavr76e/RvkYI3POXDzqRhW/o3GiOy0X/VgcZwo9kr+a865vZkvxUrJQ6qFdI7YK4Q4ggAEIACBZZkr9rpPF9SmFLLgCYpwbbSRDrOX7K9iqNt2b7uugYtuFEGTn7jETTyImI0nMLHdRpuLPBk1LsJjFTVX52E0Tn0vsNnMlyOeRiJc6mqNoxFsfSFWe/fFZ12x5/i11tQOnk53LkEAAhCAwOMRmCv2Ho8XER2JgCP+juQevkAAAhCAAASOQACxd4Qs4AMEIAABCEAAAhCYRACxNwksZiEAAQhAAAIQgMARCCD2jpAFfIAABCAAAQhAAAKTCCD2JoHFLAQgAAEIQAACEDgCAcTeEbKADxCAAAQgAAEIQGASAcTeJLCYhQAEIAABCEAAAkcggNg7QhbwAQIQgAAEIAABCEwigNibBBazEIAABCAAAQhA4AgEEHtHyAI+QAACEIAABCAAgUkEEHuTwGIWAhCAAAQgAAEIHIEAYu8IWcAHCEAAAhCAAAQgMIkAYm8SWMxCAAIQgAAEIACBIxBA7B0hC/gAAQhAAAIQgAAEJhFA7E0Ci1kIQAACEIAABCBwBAKIvSNkAR8gAAEIQAACEIDAJAKIvUlgMQsBCEAAAhCAAASOQACxd4Qs4AMEIAABCEAAAhCYRACxNwksZiEAAQhAAAIQgMARCCD2jpAFfIAABCAAAQhAAAKTCCD2JoHFLAQgAAEIQAACEDgCAcTeEbKADxCAAAQgAAEIQGASAcTeJLCYhQAEIAABCEAAAkcggNg7QhbwAQIQgAAEIAABCEwigNibBBazEIAABCAAAQhA4AgEEHtHyAI+QAACEIAABCAAgUkEEHuTwGIWAhCAAAQgAAEIHIEAYu8IWcAHCEAAAhCAAAQgMIkAYm8SWMxCAAIQgAAEIACBIxBA7B0hC/gAAQhAAAIQgAAEJhFA7E0Ci1kIQAACEIAABCBwBAKIvSNkAR8gAAEIQAACEIDAJAKIvUlgMQsBCEAAAhCAAASOQACxd4Qs4AMEINHlwf8AAA11SURBVAABCEAAAhCYRACxNwksZiEAAQhAAAIQgMARCCD2jpAFfIAABCAAAQhAAAKTCCD2JoHFLAQgAAEIQAACEDgCAcTeEbKADxCAAAQgAAEIQGASAcTeJLCYhQAEIAABCEAAAkcggNg7QhbwAQIQgAAEIAABCEwigNibBBazEIAABCAAAQhA4AgEEHtHyAI+QAACEIAABCAAgUkEEHuTwGIWAhCAAAQgAAEIHIEAYu8IWcAHCEAAAhCAAAQgMIkAYm8SWMxCAAIQgAAEIACBIxBA7B0hC/gAAQhAAAIQgAAEJhFA7E0Ci1kIQAACEIAABCBwBAKIvSNkAR8gAAEIQAACEIDAJAKIvUlgMQsBCEAAAhCAAASOQACxd4Qs4MN0Av/888/y9va2/P3338tff/3F/wdnEPIc8h3yPvsftfVc8+metTW7drH/PAQQe8+T66eN9MePH0v4/++//y7//fff03J4psBDnkO+JfezYhf71NYswseze6/aOl7keHRmAoi9M2cP3zcJhKcuYUPm3/MSCPmf8YSP2nrempLIZ9WW2OcVArcigNi7FUnsHJJA+CgvPHXh3/MSCPkPdXDrf9TWrYmez96s2jofCTw+OgHE3tEzhH+fIhB+voaPbj+F8PSdQ/5DHdz6H7V1a6Lnszerts5HAo+PTgCxd/QM4d+nCIQvY/APAjPqYIZNMnU+AtTB+XL2jB4j9p4x608UMwvxEyV7EOqMOphhcxACtw5KgDo4aGJwqyKA2KtwcPJoBFiIHy2j18Uzow5m2LwuOnp9JQHq4CvpM/ZeAoi9vaRod0oCLMSnTNvNnZ5RBzNs3jxwDE4nQB1MR8wANyCA2LsBREwclwAL8XFzc0/PZtTBDJv3ZMJYtyFAHdyGI1bmEkDszeWL9S8mMG0h/v2+vL68LR9fHN9XDP/x/WV5+fa+/HEH/1jeXl6X99/uzS+7OKMOZtj8MkAMfDUB6uBqdHS8IwHE3h1hM9T9CUxbiG8q9v4s799elpcX/d8Rkr/e+iIr3LuH+Ixxvyxvv3q5ROz1yBz7esibU3PK6SDyX3/6En8J9ff9Gd/6LPFPLypMHELgkAQQe4dMC07disCnxF4UUFqAXXIsT7fCJrrVT9qOo45P1Hob6kjsdeJ4/fl+sW/jp3rB/y2x5wnbDT7dp4hjXvrup+pAG1LHM2wq8/c9/P1n+fj5Gt9weILuT7z3urz98sXen98f+Q1LFoydmqvf0IzeNNw3/M+M9lB18BkQ9D00AcTeodODc58lMGMhjk84vr8try+vy+u3Kzes+IRsn8hLDJJI6j5RG4m9FaIVYkmIFpvmvvXReaoXxd+mmA1iTp4apTgaQWHHyj5HkYHYWzM4+0BEXfUxfKytfbU6fENSOW9rr7p5qpMZa8ypAODsKQgg9k6RJpy8lsBtF2IlVKI4SQImir/ex1vLFU+yongScZQjz0LLPhlZPzq7g9irN3IjDNcE9a5LA8VQLoVXxJ6mccfjK+tTCfAoEHtPnLu5RezdMckMBYEFsUcRPDSBm4k9+3RDib0A8KInUNbWngyEPmZDrcRXFnvvP8NHbT2DVoilDbcRkNWTuvxEx/hcjV0NZ8eobgZSzs8n8jGupXSE85hjJep6PiH2+Cs9vdrg+nEIIPaOkws8mUDg02JPnqgZoZWeRHWevtm2Jq69m6juFvrUH32aJ2RRjBXR5As+K8SS2CttzX31tC19vFfsl49ltZfh2Niwt7PYq2PhyV6D6QAX9tYpYg+xd4ByxYUNAoi9DUDcPjeB68VefgIVnmwYITV+ElYE0evP/93xBYjS3rObhFgSZfWTPSPU8pO98H3IuEm/WHEY8miFmLFh7yuxV6rA9BExXD0NbGMqgtKIVDHsjnXhE1Ox5bxeXweOsXxphs3+aPe/c7nY2/vUNrxJMnV0//BuNuKj18HNQGHoSwkg9r4UP4PPJnCThTgIqR0fZ/V+7qzEmDa45qlWaeAehScnr/ELIepJohVHSuxFI1mgRpHVEWRvv5I/nsgs1+ofzG+fMLouDy7uFQRKMO5hPxgx3LpJHZgxZtg0Q3zp6eViz3NXaqyuo/TG48ovN3nDfOG1R6+DL0TL0DckgNi7IUxMHY/ATRbiLJyKAFJCpHmiZTc1YXKJyNE2wmYZzuU127MC1Iq90Ky5Zmw0T1fMfSMo48d1UXhJLNpPiXPrNfVtBK8ZS6yUMeXKda83qQMz9AybZojJp5LHUT0P7mUR3v8YN+c6f3O9+oZvU3uTQ51o/vx1MBEOpg9DALF3mFTgyAwCN1mIrbDqOdoRLPIUI4rFjZ/naz5qDTbzpqqfqunj6E4j7DwnjZhrmgzuR/uy8WuRt0cwqCeSzZj5Qpddr8Nl129SB2bIGTbNEF93GvMx+kspxTVf7IVaeklfKnJzm+6Xj/eLvbMdPXQdnC0Z+NslgNjrouHGIxC4yUL8GbGXN83wJCtuis2TQBFQ+lWLKZWFaOtt+fA2z9liT7lRHyax1920xWf5xvKu+DWLctw8DawdGZ7dpA7MCDNsmiG+7DR+hPv9I/78Zze32btG7OWaX3/G1KtXnux9WW4Z+DkJIPaeM+9PE/VNNuTqqVYRH/7HukqomU2u2RTdLAyerqkvX6wbqdi4RuzJprwhwDyRJcI1/EWF8KfeuoIgjjF6sld/1Pf2/dV861gC/NzrTerAuDDDphnia05jLUkdj+sxOKjrWuqiqhkzD1JQPNn7muQy6rMSQOw9a+afJO6bbMhh89vzJQF3UyugZSP0RaIWkbLRlr7pSD4yde7vFntlnGpDjgNsbOxKHJa+14u9xCPHotil6yOBaLlsn9+kDswwM2yaIe5/GuvIiPdK/LUuxXyFH0/otVO5Lb0Re4UFRxCYTwCxN58xI3whgSNtyOumOOTRF1yxfxSdTpuR2Msb+PbPDDp2s69lbOu8CNAiIlsxWwu3+BGh/dUwjSBIYuAlfjnFjnn5+Yw6mGHz8shu10Py4j6lzULfu7dZ125tpvx69m4X0X0sPVod3Icao9ybAGLv3sQZ764EPrMQy+bXipeRsCn37EYWN8WNj0zTWO2Tu9RXXxeRVQup3XDz5r0vNj2uHWH/kz3hWZ4KKluN2JN7Emf+YX+5fOHrZ+qgN9QMm72xpl6XNwObT699Ae6KPVtf9otJ3XxPjXSK8Yepgyl0MHoUAoi9o2QCP6YQONJC7G6KTdTt07VW6OlOsgEXkVkLuJFQ03a++Hjy5j+jDmbYvG8WpHYufMOwCrnUb19dl1/2vdanFYD3Df5mo52/Dm6GAkMHJoDYO3BycO3zBM6/ELfi7/NUns/CjDqYYfP5MnP+iKmD8+fwGSJA7D1Dlp84RhbiJ06+Cn1GHcywqVzm8CQEqIOTJOrJ3UTsPXkBPHr4LMSPnuF98c2ogxk290VDqyMRoA6OlA186RFA7PXIcP0hCLAQP0QaPx3EjDqYYfPTgWLg7gSog7sjZ8ArCCD2roBGl/MQYCE+T65mejqjDmbYnMkA23MIUAdzuGL1tgQQe7flibWDEfj777+X//7772Be4c49CYT8hzq49T9q69ZEz2dvVm2djwQeH50AYu/oGcK/TxF4e3tb/v3330/ZoPO5CYT8hzq49T9q69ZEz2dvVm2djwQeH50AYu/oGcK/TxH4559/lh8/fnzKBp3PTSDkP9TBrf9RW7cmej57s2rrfCTw+OgEEHtHzxD+fZpAWJDD//AunI90P43zFAZCnkO+JfeznBb71NYswseze6/aOl7keHRmAoi9M2cP33cTCE9hwsdu4eeswg9U8/+xGYQ8h3zPeKJni47aeuxasmvFPWvL1hrnELiWAGLvWnL0gwAEIAABCEAAAicggNg7QZJwEQIQgAAEIAABCFxLALF3LTn6QQACEIAABCAAgRMQQOydIEm4CAEIQAACEIAABK4lgNi7lhz9IAABCEAAAhCAwAkIIPZOkCRchAAEIAABCEAAAtcSQOxdS45+EIAABCAAAQhA4AQEEHsnSBIuQgACEIAABCAAgWsJIPauJUc/CEAAAhCAAAQgcAICiL0TJAkXIQABCEAAAhCAwLUEEHvXkqMfBCAAAQhAAAIQOAEBxN4JkoSLEIAABCAAAQhA4FoCiL1rydEPAhCAAAQgAAEInIAAYu8EScJFCEAAAhCAAAQgcC0BxN615OgHAQhAAAIQgAAETkAAsXeCJOEiBCAAAQhAAAIQuJYAYu9acvSDAAQgAAEIQAACJyCA2DtBknARAhCAAAQgAAEIXEsAsXctOfpBAAIQgAAEIACBExBA7J0gSbgIAQhAAAIQgAAEriWA2LuWHP0gAAEIQAACEIDACQgg9k6QJFyEAAQgAAEIQAAC1xJA7F1Ljn4QgAAEIAABCEDgBAQQeydIEi5CAAIQgAAEIACBawkg9q4lRz8IQAACEIAABCBwAgKIvRMkCRchAAEIQAACEIDAtQQQe9eSox8EIAABCEAAAhA4AQHE3gmShIsQgAAEIAABCEDgWgKIvWvJ0Q8CEIAABCAAAQicgABi7wRJwkUIQAACEIAABCBwLQHE3rXk6AcBCEAAAhCAAAROQOD/Aa05Cm6U6IOKAAAAAElFTkSuQmCC;" vertex="1" parent="1">
          <mxGeometry x="180" y="420" width="635" height="188" as="geometry" />
        </mxCell>
        <mxCell id="qfzSOr-zgeNYvHdIqy-h-38" value="" style="shape=image;verticalLabelPosition=bottom;labelBackgroundColor=#ffffff;verticalAlign=top;aspect=fixed;imageAspect=0;image=data:image/png,iVBORw0KGgoAAAANSUhEUgAAAusAAAFGCAYAAADTk9GQAAAgAElEQVR4Ae3d4a8tV3kfYP6YqP9CK9KUfOBLK6VI/VK1KSm4RlWDHdVBJWCMsQ2mStN+SIrbqi22sVqMS1W1JqRRIUlJDY5qnCgBEjsQg2MSDIbaCb7Gvrbvqt599Pqus+7Mnr3P2fesmT3Plo72npk1a6151mv0m2Gfc99UvAgQIECAAAECBAgQmJ3AM888U940u1mZEAECBAgQIECAAAECGwFhXSEQIECAAAECBAgQmKmAsD7ThTEtAgQIECBAgAABAsK6GiBAgAABAgQIECAwUwFhfaYLY1oECBAgQIAAAQIEhHU1QIAAAQIECBAgQGCmAsL6TBfGtAgQIECAAAECBAgI62qAAAECBAgQIECAwEwFhPWZLoxpESBAgAABAgQIEBDW1QABAgQIECBAgACBmQoI6zNdGNMiQIAAAQIECBAgIKyrAQIECBAgQIAAAQIzFRDWZ7owpkWAAAECBAgQIEBAWFcDBAgQIECAAAECBGYqIKzPdGFMiwABAgQIECBAgICwrgYIECBAgAABAgQIzFRAWJ/pwpgWAQIECBAgQIAAAWFdDRAgQIAAAQIECBCYqYCwPtOFMS0CBAgQIECAAAECwroaIECAAAECBAgQIDBTAWF9pgtjWgQIECBAgAABAgSEdTVAgAABAgQIECBAYKYCwvpMF8a0CBAgQIAAAQIECAjraoAAAQIECBAgQIDATAWE9ZkujGkRIECAAAECBAgQENbVAAECBAgQIECAAIGZCgjrM10Y0yJAgAABAgQIECAgrKsBAgQIECBAgAABAjMVENZnujCmRYAAAQIECBAgQEBYVwMECBAgQIAAAQIEZiogrM90YUyLAAECBAgQIECAgLCuBggQIECAAAECBAjMVEBYn+nCmBYBAgQIECBAgAABYV0NECBAgAABAgQIEJipgLA+04UxLQIECBAgQIAAAQLCeinld3/398sNN95Unn/hhU1FfPObT5d33nhTifd8tW1y/6HfYw4xl4c/8z/f6HpoPm8c3OND9Pmxf/Mf9jhDUwIECBAgQIAAgZ4CFx7Wf/Sjl8vtd3y0/NU3v/Wanwyo8R5tou3UK9oO9TW2byistkF8KBy3bYbmFW3Gxh3an9db9zU0Tjuf2H7b3/npa8aKc7e90mrIYNt5jhEgQIAAAQIECPQR6BbW66CaAT73xftQWI/9bdAcazvEGee250e7NiC34XiozVD/bT9DbWJfe73Zbmx/O592O8aN8B774/PQjcGu++J8LwIECBAgQIAAgXkILCKsZ4iNQBphMrbzNbewvmsojnYx9/oV11Z/HWcseD/0X/7bqa/p1DchbR91/9s+59dv4nwvAgQIECBAgACBeQh0DesZLL/z7Hc3T9IzvNYBPJ4WR0gfetIehHXbKdI61Oa5bbiOsBzzmvrOetww/OIv/fKZvteeNx95vTGX3BdjZ3DO/xegfZJeb9efo580ze/fT5nk8RwzzvciQIAAAQIECBCYh8Csw/of/tGTm6C+LUBG4G0D97btDMA1fxtw2wAcbes2Gaxvec+tJW408hVtto3dHqvDen3TEf3UNyftfOrt9gYk5+KdAAECBAgQIEBg+QKzDusRiqdedcidajsWbOsgHn1EGK5/gTM+x1dP8ql7bNdBe2rcXY5Hf3WYjzm184jjMfbnf+MLmyf/8V7PJW8i6n72/VzfJOwyb20IECBAgAABAgSun8CswnoE4giLUwHz0EF5KKwPfQ0mw3KE6Hzl10em5jx1POYQr3hvA3P9JD3a1NvRPvrexSTD/C5t8/q8EyBAgAABAgQI9BOYVVjPEBnvGViHnoYPPXGeCsNDx3O8DOsxZvzE12+Gwnr9y59DS1bPO4/XwTr3xfvQdUWYbr8HH23bPtrtGDeesMf+fOVNRF5j7BfWU8c7AQIECBAgQGAZArMP60MBuKXNsL3vL1VGP/lkOsJ8fI5XG4az3S5hfeimYGxfBPb6FePHvhg/wvfYfNr5DYXwto8YZ6hdPb7PBAgQIECAAAEC8xKYfVhvg2nLd54Amk+3IxTXQXxozLZNO4/YHrqxGOor2ubY2U8+CY9gn/+vQow5FPTj6Xv75D/6q5+ix7nt0/a0Guoz9kUfXgQIECBAgAABAvMR6BrWM9xGUI2AmmEz90e4zIA5FiTrkDsWQuv9dSjPZWiD+FDAbtvEuTGnDNaxHfOux5r6XF9TjBkhPK63fbXzabfTIP1ybu21pmXdrh3LNgECBAgQIECAwHwELjys15ceYTUCbR1a43gd1mN76Clx3c+un9t+87w2iLdh+L5PfPKNvwYTwThfMe927nks39u+cv8+7+28s88I93lDUN80ZHiPY3UwF9b3UdeWAAECBAgQINBfoFtYz8CZf36wDr1tOA2mOF4H0rPQjYXrsbCec4v5tG3q4BvXEl85yeC873v0Xb8ybMe42XfdJu3ifeiVc435x1zy3HrOQ+fZR4AAAQIECBAgMC+BLmE9Q2MG9AynuZ1hPfZHQI+wmeecNbAPhd5cigy3MV68sm39NZK2Tc45g3D21b5PBeu6ffQV4TrHzXmkS7bd1mc6hWG8ss9wS888lv15J0CAAAECBAgQmKdAl7Ae4bMN3RlA488mxrF8Ot0Gy6Fza9oMp3l+/d72lWE42tSBONrV29F/huC6v5jnE09+/VxP1bO/j91z7VdqYg7tnGMuaRXv7SvaZ9ivj0VfOda296Fz6358JkCAAAECBAgQuDiBCw/rESbboF5fbobioZBat/P5WoFtIf7a1vYQIECAAAECBAjMXeDCw/rcQcyPAAECBAgQIECAwFwEhPW5rIR5ECBAgAABAgQIEGgEhPUGxCYBAgQIECBAgACBuQgI63NZCfMgQIAAAQIECBAg0AgI6w2ITQIECBAgQIAAAQJzERDW57IS5kGAAAECBAgQIECgERDWGxCbBAgQIECAAAECBOYiIKzPZSXMgwABAgQIECBAgEAjIKw3IDYJECBAgAABAgQIzEVAWJ/LSpgHAQIECBAgQIAAgUZAWG9AbBIgQIAAAQIECBCYi4CwPpeVMA8CBAgQIECAAAECjYCw3oDYJECAAAECBAgQIDAXAWF9LithHgQIECBAgAABAgQaAWG9AbFJgAABAgQIECBAYC4CwvpcVsI8CBAgQIAAAQIECDQCwnoDYpMAAQIECBAgQIDAXASE9bmshHkQIECAAAECBAgQaASE9QbEJgECBAgQIECAAIG5CAjrc1kJ8yBAgAABAgQIECDQCAjrDYhNAgQIECBAgAABAnMRENbnshLmQYAAAQIECBAgQKARENYbEJsECBAgQIAAAQIE5iIgrM9lJcyDAAECBAgQIECAQCMgrDcgNgkQIECAAAECBAjMRUBYn8tKmAcBAgQIECBAgACBRkBYb0BsEiBAgAABAgQIEJiLgLA+l5UwDwIECBAgQIAAAQKNgLDegNgkQIAAAQIECBAgMBcBYX0uK2EeBAgQIECAAAECBBoBYb0BsUmAAAECBAgQIEBgLgLC+lxWwjwIECBAgAABAgQINALCegNikwABAgQIECBAgMBcBIT1uayEeRAgQIAAAQIECBBoBIT1BsQmAQIECBAgQIAAgbkICOtzWQnzIECAAAECBAgQINAICOsNiE0CBAgQIECAAAECcxEQ1ueyEuZBgAABAgQIECBAoBEQ1hsQmwQIECBAgAABAgTmIiCsz2UlzIMAAQIECBAgQIBAIyCsNyA2CRAgQIAAAQIECMxF4OLD+kuXSnniq6V8+VE/DNSAGlADakANqAE1oAbmXwORXSPDdnhdfFiPi33mW6X85Qt+GKgBNaAG1IAaUANqQA3MvwYiu0aG7fC6+LAed4+KkoEaUANqQA2oATWgBtTAkmogMmyHl7C+pCIxV/+jpgbUgBpQA2pADaiBPjUgrPtajP/HQQ2oATWgBtSAGlADamCmNSCsz3Rh3L32uXvlzl0NqAE1oAbUgBqYUw0I68K6O2k1oAbUgBpQA2pADaiBmdaAsD7ThZnTHZ25eMKgBtSAGlADakANqIE+NSCsC+vupNWAGlADakANqAE1oAZmWgPC+kwXxt1rn7tX7tzVgBpQA2pADaiBOdWAsC6su5NWA2pADagBNaAG1IAamGkNCOszXZg53dGZiycMakANqAE1oAbUgBroUwPCurDuTloNqAE1oAbUgBpQA2pgpjUgrM90Ydy99rl75c5dDagBNaAG1IAamFMNCOvCujtpNaAG1IAaUANqQA2ogZnWgLA+04WZ0x2duXjCoAbUgBpQA2pADaiBPjUgrB84rD/ySCkPPFDKHXeW8jPvOPmJz7Evjil0BmpADagBNaAG1IAaUAO71oCwfsCw/uCDpfzU27b/RJtdF2eB7X703HfL7b/w3nLPv/qXB7nOhx96cNNf9HvMbq7tgP8dLvC/G+tv/dWAGlADamC0BoT1AxXHz79ne0ivQ3y0PUOgeOorv1/+9t/6m+Wv/NiP7fwTYXfbWOcNwxHKI5xnmH7+mafLDW9/e5kaN0P90LXE+dFPtpnqa9v1OXag+j5DvbJnrwbUgBpQA2rgADUgrB8A8cZ37R7UM7THOXsGoAjrN7z9H5R4nzp316D7h4/93024PsuT8KFgPrRvaK5j83v8t7+wmU/0Ez+3vPtnd7reoTHsO0Bt71mjzJmrATWgBtSAGjhwDQjr5wT95V/ZP6hnYI9z9whD1yOsx/i7Bux2rhGs40l/ffOwa1+7hPXof+jJe+6L4+2cbJ+znveoR9as1YAaUANqQA1cQA0I6+dA/uIj1wb19/5CKfGTgTzfx/ZHHzsGpAjFh/4aTI4dwTe/fpL7tr1n2M7gvOt7hvs8P77iUt+E5Dy+8/U/3ny9pv6KTcwn/h+As/y/ANuuxbFz/DewY+0yZqwG1IAaUANq4Iw1IKyfES5CytAvlN50cyl/8vVSHn74amCPz9/4einvvvnqvgzxe/zCaR1qpwq+DsMZgOOp99h50SYC965BeKzPszxZr68r+433CPbtDYSwfo56FaxH63/svwv71ZsaUANqQA10rwFh/RxF+NF/fm34jhAeT9H/7NulfPI/n/z82TOl/LP3DreNPnYMUXWo3fWcaLfLL5FGCI6wnk++t/WfgTwCddsuj039Umh9M1FfV4b1eKJ+37+9Z/N0PW8y6nPacW2fo453rD/GjNWAGlADakANdKgBYf0c6O+4YTiAR2CPv63+/75/8vOhO8bbRR87hqUItRGmh0LyWB+7BNw6YO/y5DrGH3sCX/c1NqfYX8+rDetx0xBP1L/5lT849Qum2fc+179tDo6do/Z3rFnGjNWAGlADakANnLMGhPVzAG4L67fdVsr3nj35ic/5tZf2fY+wHsUeT6x3/X54tmu/993+RxPhN5+o15/bdrts73pDsS2s51df6jYxdh3qd5mLNueobWF855todabO1IAaUANq4LrWgLB+jgIb+xrMu28q5ck/KuW/fvrkJz7Hvjaox/YeX4O5HoWQgTiflLfb7Zj5dDtvBM7yHmH82W+c/ALp2C+YxjgxdhzPucXnqRuPdr62z1HfArvArgbUgBpQA2qgfw0I6+cIM0O/YPr3f7qU33m0lEf+z9VwHp9jXxxrA/sev2C6a/DMwB3hduqcoSfpQ/um+snjMWYE+Kmx6znGE/P4e+oR0GPsfLIefeZ2/nWYqX5zHt7PUdf+h3nyvxv1pb7UgBpQA2rgwmpAWD9HsQ396cYPf7iU++8v5R++82owj8+x7yN3X92XoX2HP92YXy05y1Ps+pwIvnVh5VPyfHJdH4t9Q/vrNu3n7O/zD/+PU78Y2raL7TqsZyAfCuvZ5z/92X/yxld1hvqz7xx1LJyf+u9CLaklNaAG1IAamFUNCOvnLMgL/EeRdi2cOghvOyfCeP0Uu26bIbkN+HWb+nOOmQE/zsvPdbuhz/k0fmwuedxT9XPWqlAulKsBNaAG1IAaWF4NCOsHCEA3vuvaJ+b55HzsPc45438wEYLzF0KH+sjgvC3cxrFtfUS/Ebin2kS7HK/9PnmMMRXY86Yg27aBPfuO/4egPTZ07fYdoJ7PWJfs2asBNaAG1IAauA41IKwfCPXn37N7YI+25wxE+dWYNiBHv3UAHhongnGE312emkfbbSE5+oi+xkL51PlxXl5DBvMcL68jjsfneM9jQ9dl34Fq+Zy1aR2sgxpQA2pADaiBA9aAsH5AzKFfOG2frF+HXyiN/yAi9NbfTx8Ltdlul6Ce/6HFOe0T9rxZaPfnOfV7hu52TtFvuy/aPnT/fZsbiaGbgLPMv56Lzwesd6H+3Dfd6lE9qgE1oAbUwGQNCOsHLpJHHinlgQdO/lGkn3lHKfET/0BS7ItjHQPO1FPubXPLp/H/+9c+uwnYu4T0tr8M7XHunR+49Zqgnu3jRmJb/3mjEME9z/F+4DruWKfW0lqqATWgBtSAGqhqQFivMAQU4VcNqAE1oAbUgBpQA2pgTjUgrAvr7l7VgBpQA2pADagBNaAGZloDwvpMF2ZOd3Tm4gmDGlADakANqAE1oAb61ICwLqy7k1YDakANqAE1oAbUgBqYaQ0I6zNdGHevfe5euXNXA2pADagBNaAG5lQDwrqw7k5aDagBNaAG1IAaUANqYKY1IKzPdGHmdEdnLp4wqAE1oAbUgBpQA2qgTw0I68K6O2k1oAbUgBpQA2pADaiBmdaAsD7ThXH32ufulTt3NaAG1IAaUANqYE41IKwL6+6k1YAaUANqQA2oATWgBmZaA8L6TBdmTnd05uIJgxpQA2pADagBNaAG+tSAsC6su5NWA2pADagBNaAG1IAamGkNCOszXRh3r33uXrlzVwNqQA2oATWgBuZUA8K6sO5OWg2oATWgBtSAGlADamCmNbCasP7EV0t55lvuFOd0p2gu6lENqAE1oAbUgBpQA+M1ENk1MmyH15sufMyXLp1cbNyd+GGgBtSAGlADakANqAE1MPcaiKAeGbbD6+LDeoeLNCQBAgQIECBAgACBJQoI60tcNXMmQIAAAQIECBBYhYCwvopldpEECBAgQIAAAQJLFBDWl7hq5kyAAAECBAgQILAKAWF9FcvsIgkQIECAAAECBJYoIKwvcdXMmQABAgQIECBAYBUCwvoqltlFEiBAgAABAgQILFFAWF/iqpkzAQIECBAgQIDAKgSE9VUss4skQIAAAQIECBBYooCwvsRVM2cCBAgQIECAAIFVCAjrq1hmF0mAAAECBAgQILBEAWF9iatmzgQIECBAgAABAqsQENZXscwukgABAgQIECBAYIkCwvoSV82cCRAgQIAAAQIEViEgrK9imV0kAQIECBAgQIDAEgWE9SWumjkTIECAAAECBAisQkBYX8Uyu0gCBAgQIECAAIElCgjrS1w1cyZAgAABAgQIEFiFgLC+imV2kQQIECBAgAABAksUENaXuGrmTIAAAQIECBAgsAoBYX0Vy+wiCRAgQIAAAQIEliggrC9x1cyZAAECBAgQIEBgFQLC+iqW2UUSIECAAAECBAgsUUBYX+KqmTMBAgQIECBAgMAqBIT1VSyziyRAgAABAgQIEFiigLC+xFUzZwIECBAgQIAAgVUICOurWGYXSYAAAQIECBAgsEQBYX2Jq2bOBAgQIECAAAECqxAQ1lexzC6SAAECBAgQIEBgiQLC+hJXzZwJECBAgAABAgRWISCsr2KZXSQBAgQIECBAgMASBYT1Ja6aORMgQIAAAQIECKxCQFhfxTK7SAIECBAgQIAAgSUKCOtLXDVzJkCAAAECBAgQWIWAsL6KZXaRBAgQIECAAAECSxQQ1pe4auZMgAABAgQIECCwCgFhfRXL7CIJECBAgAABAgSWKCCsL3HVzJkAAQIECBAgQGAVAsL6KpbZRRIgQIAAAQIECCxRQFhf4qqZMwECBAgQIECAwCoEhPVVLLOLJECAAAECBAgQWKKAsL7EVTNnAgQIECBAgACBVQgI66tYZhdJgAABAgQIECCwRAFhfYmrZs4ECBAgQIAAAQKrEBDWV7HMLpIAAQIECBAgQGCJAsL6ElfNnAkQIECAAAECBFYhIKyvYpldJAECBAgQIECAwBIFhPUlrpo5EyBAgAABAgQIrEJAWF/FMrtIAgQIECBAgACBJQoI60tcNXMmQIAAAQIECBBYhYCwvopldpEECBAgQIAAAQJLFBDWl7hq5kyAAAECBAgQILAKAWF9FcvsIgkQIECAAAECBJYoIKwvcdXMmQABAgQIECBAYBUCwvoqltlFEiBAgAABAgQILFFAWF/iqpkzAQIECBAgQIDAKgSE9VUss4skQIAAAQIECBBYooCwvsRVM2cCBAgQIECAAIFVCAjrq1hmF0mAAAECBAgQILBEAWF911X74pdK+bt/r5Qnn9z1DO0IECBAgAABAgQInEtAWN+VL0L6e9938nPp0q5nlfIvfmn8nO9/v5QbbiwlbgSGXg9+avxYto82Ma995pTnHuo95hDXEddz3lc4v/MfuSk6r6PzCRAgQIAAgaMQWHdYz7AcYXOXVwTJeLo+Fq7bPob6j/AeP/HK40P9Rfj+1/eU8lNv2z7etrCe840+zvIz9P8kDP0/DNtuSGqTmOvYPNJg2/XUfflMgAABAgQIEFiBgLAeT4QjIEY4jifUY2Fy1/3RV77aYJvhPNvkdgbVPK9+jyCcoTnO23Ue+bQ9ryvHjL7rp9djc4g2N9187dPyoWA+tK++hvwcc8h55b52/Oirnmu2806AAAECBAgQWKGAsJ5hvV38oWDZtmnDeHs8gmf85KsOybGvDarZrn6PsH3HnaV87vP13qufp+Y5FdbzeHvDENtjwboN04cK6+kxdkNSW14V8IkAAQIECBAgcLQCwvpYWG+D9VAJbAvKGTzrEBztx4JovX+fULptDjHnDON1//E5n9ZHmxivDeCx3c5j1/m3Y2Xf8R43AGET77FdO8V2Pa+YW/gd6vvwQ2toHwECBAgQIEBgxgLC+lhYz5Bbh+16IfN4BtH6WHyO/RFa8/w6lGbboX15rH2Pm4cIsm0QHtvOgDs0z/ZGJOZaB/Ohc7bNNc5tn8K384/tGGcsrMf/cxDHarM4R1gfkrSPAAECBAgQWIlAv7Ce4S/DZobLgM9gWgfI2B9hr33ymqF4qJ84J/rIY20QzDlEH0OvDJcRXttXhMh2Ltkm+63HGwqd2S4DfZ6fYTnnXc9v7Jw8N97rsbKvuo82rEf7OmwPjRGO7XrkmLG/Pj/3t+/pGf1H+9jOsbKP+MpP7ZHnDK1B279tAgQIECBAgMCRCfQJ6xnG6wAZYa0O7BHY6jCc59RBLs6p28Ti3HvfSQDMkFqHyDi3DtAZFOt51As8NGYej7HjZ+gV/WXQjjFzLm37HL++prq/PK+dX56X/cX57XWm5VAfbVhvt6O/PD/mE+NF//E+9Ip51OMPtYl9cR3ZT7zHdl5Lrkv0VV9vbOd1jvVrPwECBAgQIEDgSAX6hPWhcJehrQ1qGQLb0BaBsg3q9SKNHa/HHhqz7iM+Z8CM0Juvsb7jeAb8hx8+CbzRNs6Nm4g4Vr9y/Ggz9GqDdpxf/4WWNInz06ntJ/vIm4d8r+2yTc5j6JrbfnM7z425TL2y37juNqwPjZ191zUxNYbjBAgQIECAAIEjErj4sD4WUDOY1aEv28a++klvLEDsGwuoebzuKxctgl/2lf1vC4PZJvvKMJ7hMvvN99gfbfO8sXbRfqpNmtTzy/HrffF5zGKsj/YfHoo+Yt5D7WN/hvyzvodDzjOueyys1zck8bmdZzp7J0CAAAECBAisQODiw3qGzbHQl6E48SPkRds69GagbNvmOXl8bIx9wnr0mXOOf6Qozq2Dco7ZvtdBPM8fm0+7P59653W04+X+NMmg3c4htrNt3cdQCM59H7/36s3MUH/tvry2sZuFun3MIdplWI/5107Rtt7O9nENXgQIECBAgACBFQpcfFivw9gUeLZ9983XBsgI6mNhPfqdOh5tsv86yI7NKdpEqM4gPdYu92ffGahzf/0+1aYO2hmK22C/bTvGrvvIsTOYx3v9CrPob5tr3T4+p3O8b7vWaJvh+0+fOVnPobCefcYT9bDeZW3aOdkmQIAAAQIECByJwMWH9QyPuwTCaFM/ia3PiRCXT8iHFmPqeJyTYXkqEMbxCLH1nxecOif73hZgp9qk1baxMsSPjVP3kW3rgJ83HzmXODbWV+sc88o1iPNzrdp27XY9j6Gx8vguT+vbvm0TIECAAAECBI5I4OLDeuBFQItQ2IbQ/Esu2SaDZGxngMtwlyE0w2IuSvaR4bMNfHF+9pFt2nlkX7E/5jnURwbe7CvPyffse+x4tJtqk9cY84jrj19arV95fs6lvY4YO4/V1xF91d8Fz3HCMn8xNvre9oqx6vWJttFv/QuwY+fnTVjc/MS8WqN0Hzo21qf9BAgQIECAAIEjFOgT1gMyw3cdJjNsZsjM7YSPkNcGxNhX91E/fc8QWh+vg3eG3Xqc+py6r5xD/Z7zjP7bttl3G0Tr86fa1HNpb0py7Bw3t+vrq8eqP9dhPedQ9x8e9XZ97lD7+niu69h1x/56DWOs8Mv2cT15vD1Wj+MzAQIECBAgQGAFAv3C+txw62CcwXHXOWaAjdCZwT/3betrqk0G3zo457464OY8d72GDOvxy6TRT91/9hWhud5f953XmG2H3uP8do5h0e6Lczd/1vKPT8arx4xjeU7elAyNZR8BAgQIECBA4EgFhPXrtbBTQTzGnWoTATlCarTLkN6G2aH5R8DNp9NDx7OvCM7bnsRHKI/xPnz3ScjeJaS342Voz/ehm5d0GOs/bxR2ufZ2fNsECBAgQIAAgQULCOsLXjxTJ0CAAAECBAgQOG4BYf2419fVESBAgAABAgQILFhAWF/w4pk6AQIECBAgQIDAcQsI68e9vq6OAFxdWZ0AAAuuSURBVAECBAgQIEBgwQLC+oIXz9QJECBAgAABAgSOW0BYP+71dXUECBAgQIAAAQILFhDWF7x4pk6AAAECBAgQIHDcAsL6ca+vqyNAgAABAgQIEFiwgLC+4MUzdQIECBAgQIAAgeMWENaPe31dHQECBAgQIECAwIIFhPUFL56pEyBAgAABAgQIHLeAsH7c6+vqCBAgQIAAAQIEFiwgrC948UydAAECBAgQIEDguAWE9eNeX1dHgAABAgQIECCwYAFhfcGLZ+oECBAgQIAAAQLHLSCsH/f6ujoCBAgQIECAAIEFCwjrC148UydAgAABAgQIEDhuAWH9uNfX1REgQIAAAQIECCxYQFhf8OKZOgECBAgQIECAwHELCOvHvb6ujgABAgQIECBAYMECwvqCF8/UCRAgQIAAAQIEjltAWD/u9XV1BAgQIECAAAECCxYQ1he8eKZOgAABAgQIECBw3ALC+nGvr6sjQIAAAQIECBBYsICwvuDFM3UCBAgQIECAAIHjFhDWj3t9XR0BAgQIECBAgMCCBYT1BS+eqRMgQIAAAQIECBy3gLB+3Ovr6ggQIECAAAECBBYsIKwvePFMnQABAgQIECBA4LgFhPXjXl9XR4AAAQIECBAgsGABYX3Bi2fqBAgQIECAAAECxy0grB/3+ro6AgQIECBAgACBBQsI6wtePFMnQIAAAQIECBA4bgFh/bjX19URIECAAAECBAgsWEBYX/DimToBAgQIECBAYB+Bp14o5R//r1J+8iE/+xiEWdj1eAnrPdSNSYAAAQIECBDoIBCh862fFtT3CerRNszCrsdLWO+hbkwCBAgQIECAQAeBfUOq9qdvbDosWRHWe6gbkwABAgQIECDQQUD4Ph2+9/XosGTCeg90YxIgQIAAAQIEegjsG061Px3ue6yZJ+s91I1JgAABAgQIEOggIHyfDt/7enRYMk/We6AbkwABAgQIECDQQ2DfcKr96XDfY808We+hbkwCBAgQIECAQAcB4ft0+N7Xo8OSebLeA92YBAgQIECAAIEeAvuGU+1Ph/sea+bJeg91YxIgQIAAAQIEOggI36fD974eHZbMk/Ue6MYkQIAAAQIECPQQ2Decan863PdYM0/We6gbkwABAgQIECDQQeB6hu+3PPh6+fGP/6DE+9g4u7Spz920/4/Plbd88vJon3X76/25w5J5st4D3ZgECBAgQIAAgR4C1zPM3v3o6+V7l14vd/3m86Ph+sO/fal878XXyke++OpO4fvuR6+UF16+Uj7+2AvlJx54sfzkp65sbgj+2se+VaZ+/sZ/enmnMfYx6bFmnqz3UDcmAQIECBAgQKCDwD7BdN+29/xeKS+8XMrl16+Uex//4TWBPcLzUz+4vLnqzz51+uslY2N99HdK+epzJ1CPffuVcstvvFqee2k3uF/9xmvC+m5UWhEgQIAAAQIECMxBYCwUH2p/hOtLlyOwl3L/H1wNy/F1ls88cZKydw3qEe7f/O+/u/lazSe+VsqlV0uJ93qu8bQ9vnoTT9xzfzyNv3T5ShHW51Bx5kCAAAECBAgQILCzQAbaQ75HEI9QnV9Lia+sxFddHv7aD9/Yd+fnniuXLr++ebKe7eL9r9/3whshu51ThO0I3RG+22O5/eXvvLb56s0tv3W1jbC+czloSIAAAQIECBAgMCeBDLmHfN88TX/1bFf5rb84/aS8npewfmLqO+tnqy1nESBAgAABAgQWJ1CH4Yv4HIE7vsP+ia+M/4WYsXnUYT2+ElM/kc/Pjz3zo81T/Jv++7Ob4/GE/+4vnTyRj/PH+j7r/h4LLqz3UDcmAQIECBAgQKCDwFlD6lnPO1RYj++57/KK77Xf/1XfWd/FShsCBAgQIECAAIGZCZw1dJ/1vEOF9Xb8+J78vY+/uPlF1vhzkb6zPrNCMx0CBAgQIECAAIH9BdrQe97t9pdL8+sp+R6/ZHr5tZO/k5772vexXzKtvwZzap6fulLu+sKLm18+/YuXr/gF0/3LwBkECBAgQIAAAQJzFDgVeh8a/+XOXdud55dL02fsl0wHw/qnrpSf+7W/3AT0x58txV+DSUXvBAgQIECAAAECixfYNYQfot1HHnl58/Q7/ub6fb/30qm/hb5L/21Yj6f4N//q85ugngFfWF98SboAAgQIECBAgACBFNglJB+izVs+ebk89u2XN98pj3+BNL5X/nO//uJef52lDuvR312/+fwm/GdQj3kK67my3gkQIECAAAECBBYvcIggPtVHBOt7H//hJqjHV1WifQTsbz7/2tZ/BKnt942w/qXX3vhl0jqoR3thffEl6QIIECBAgAABAgRSoA3Eh97+iQdeLPEvmMZXX+pgfctvlfLcSyeBPf4WenylZWrsDOubP8X4aikZ/Ovzvvznr/oF01xc7wQIECBAgAABAssWqIPuIT/nP1r02Ldf2QANBesM7Jcul3Ln554rP/7xH2z9HnuG9bsfvXIq2McNQf5Fmad+cLk8d+lKib7zeqL9pctXSpyf+w713mP1/aNIPdSNSYAAAQIECBDoIHCo0Jr9xFde3vzv/rx85omXNlcT/yhR/IWYPD70nv/A0fcuXSnxL4+OhfaxsB43AvXrs39SNn1kgI8bgQjrMc7Q+OfZV497UZ+F9YuSNg4BAgQIECBAoLPAeYLq0Lmf+Fopr75eyi4hvT0/Q3d8PaZ+Mp7tImzv0m8+sa9p66/gZH+HeK/HuKjPwvpFSRuHAAECBAgQINBZ4BCBdc199Fg+Yb2HujEJECBAgAABAh0E1hy0D3HtHZasCOs91I1JgAABAgQIEOggcIjAuuY+OiyZsN4D3ZgECBAgQIAAgR4Caw7ah7j2HmvmyXoPdWMSIECAAAECBDoIHCKwrrmPDkvmyXoPdGMSIECAAAECBHoIrDloH+Lae6yZJ+s91I1JgAABAgQIEOggcIjAuuY+OiyZJ+s90I1JgAABAgQIEOghsOagfYhr77Fmnqz3UDcmAQIECBAgQKCDwCEC65r76LBknqz3QDcmAQIECBAgQKCHwLt+/fXy1k+XsubAfZZrD7Ow6/HyZL2HujEJECBAgAABAh0Evvadlzah8yyBdc3nRFAPux4vYb2HujEJECBAgAABAh0ELl26VF588UU/ZzAIux4vYb2HujEJECBAgAABAh0EXnnlFUH9DEE9bnDCrsdLWO+hbkwCBAgQIECAQCeB1157bRM8I3z62c0gzHq9hPVe8sYlQIAAAQIECBAgMCEgrE8AOUyAAAECBAgQIECgl4Cw3kveuAQIECBAgAABAgQmBIT1CSCHCRAgQIAAAQIECPQSENZ7yRuXAAECBAgQIECAwISAsD4B5DABAgQIECBAgACBXgLCei954xIgQIAAAQIECBCYEBDWJ4AcJkCAAAECBAgQINBLQFjvJW9cAgQIECBAgAABAhMCwvoEkMMECBAgQIAAAQIEegkI673kjUuAAAECBAgQIEBgQkBYnwBymAABAgQIECBAgEAvAWG9l7xxCRAgQIAAAQIECEwICOsTQA4TIECAAAECBAgQ6CUgrPeSNy4BAgQIECBAgACBCQFhfQLIYQIECBAgQIAAAQK9BIT1XvLGJUCAAAECBAgQIDAhIKxPADlMgAABAgQIECBAoJeAsN5L3rgECBAgQIAAAQIEJgSE9QkghwkQIECAAAECBAj0EhDWe8kblwABAgQIECBAgMCEgLA+AeQwAQIECBAgQIAAgV4CwnoveeMSIECAAAECBAgQmBAQ1ieAHCZAgAABAgQIECDQS0BY7yVvXAIECBAgQIAAAQITAsL6BJDDBAgQIECAAAECBHoJCOu95I1LgAABAgQIECBAYIvA008/Xd505513ljvuuKN86EMfKrfffvvm54Mf/GC57bbbNj8f+MAHyq233vrGz/vf//5y6J/3ve99xQ8DNaAG1IAaUANqQA2ogbnUwKHzbvRXZ+rI2Jm3I3tnDo9MHtk8Mvpdd91V/j+JFCjXrfRi3wAAAABJRU5ErkJggg==;" vertex="1" parent="1">
          <mxGeometry y="630" width="747" height="326" as="geometry" />
        </mxCell>
        <mxCell id="qfzSOr-zgeNYvHdIqy-h-39" value="批量导入" style="rounded=0;whiteSpace=wrap;html=1;" vertex="1" parent="1">
          <mxGeometry x="20" y="660" width="120" height="30" as="geometry" />
        </mxCell>
      </root>
    </mxGraphModel>
  </diagram>
</mxfile>
